<svg width="550" height="640" viewBox="0 0 550 640" fill="none" xmlns="http://www.w3.org/2000/svg">
  <defs>
    <linearGradient id="canvas-ocean-bg" x1="275" y1="0" x2="275" y2="640" gradientUnits="userSpaceOnUse">
      <stop stop-color="#9AEAF0"/>
      <stop offset="0.34" stop-color="#42C5DA"/>
      <stop offset="0.68" stop-color="#1A8EBE"/>
      <stop offset="1" stop-color="#18366E"/>
    </linearGradient>
    <linearGradient id="canvas-light-ray" x1="0" y1="0" x2="0" y2="1">
      <stop stop-color="#E8FFFF" stop-opacity="0.48"/>
      <stop offset="1" stop-color="#E8FFFF" stop-opacity="0"/>
    </linearGradient>
  </defs>

  <rect width="550" height="640" fill="url(#canvas-ocean-bg)"/>

  <ellipse cx="182" cy="74" rx="172" ry="82" fill="#CFFCF8" fill-opacity="0.28"/>
  <ellipse cx="422" cy="96" rx="118" ry="64" fill="#C8F4FF" fill-opacity="0.18"/>

  <path d="M52 0H126L164 316H78L52 0Z" fill="url(#canvas-light-ray)"/>
  <path d="M172 0H246L292 348H196L172 0Z" fill="url(#canvas-light-ray)"/>
  <path d="M314 0H386L432 326H340L314 0Z" fill="url(#canvas-light-ray)"/>

  <g fill="#25B4D0" fill-opacity="0.84">
    <path d="M298 146C336 120 394 119 448 148C474 142 505 151 530 174C505 177 484 186 464 203C454 226 439 246 422 262C401 244 384 229 365 210C338 216 310 214 284 206C268 219 246 228 222 230C238 208 261 186 298 146Z"/>
    <path d="M156 204C185 186 229 186 269 208C288 203 311 209 328 225C311 227 296 233 282 245C274 260 263 273 250 283C235 269 223 257 209 246C188 251 167 250 148 244C137 254 121 260 103 261C115 246 132 228 156 204Z"/>
    <path d="M338 134C346 103 369 80 409 71C398 95 397 114 402 132L338 134Z"/>
  </g>

  <g fill="#2CC5DA" fill-opacity="0.7">
    <path d="M82 178C96 171 120 171 139 180C153 176 168 179 180 189C167 190 157 195 146 204C142 214 136 222 129 229C120 221 112 215 104 208C91 210 79 209 67 205C59 212 49 216 38 217C46 205 58 193 82 178Z"/>
    <path d="M142 152C154 146 173 146 189 154C200 151 212 153 222 161C211 162 203 166 194 173C191 180 186 186 181 191C173 184 167 179 160 173C150 175 140 174 131 171C125 176 117 180 108 181C114 172 123 164 142 152Z"/>
    <path d="M126 236C138 230 157 230 174 238C185 235 197 237 207 245C196 246 188 250 179 257C176 264 171 270 165 275C157 268 151 263 145 257C134 258 125 257 115 254C109 259 101 263 92 264C98 255 107 247 126 236Z"/>
  </g>

  <g fill="#D6FEFF" fill-opacity="0.32">
    <circle cx="78" cy="64" r="8"/>
    <circle cx="66" cy="42" r="5"/>
    <circle cx="472" cy="78" r="10"/>
    <circle cx="454" cy="54" r="5"/>
    <circle cx="486" cy="110" r="6"/>
    <circle cx="368" cy="236" r="8"/>
    <circle cx="382" cy="210" r="5"/>
  </g>

  <path d="M0 432C46 396 96 384 158 392C206 400 244 430 296 430C356 430 404 400 468 402C503 404 529 412 550 420V640H0V432Z" fill="#2598B7" fill-opacity="0.46"/>
  <path d="M0 476C54 438 111 432 168 448C213 460 250 492 304 494C364 496 412 466 472 464C504 463 531 470 550 480V640H0V476Z" fill="#217FA3" fill-opacity="0.66"/>
  <path d="M0 530C57 492 121 488 192 507C244 521 289 554 350 558C423 562 478 536 550 542V640H0V530Z" fill="#18366E"/>

  <g fill="#1A5F8B" fill-opacity="0.72">
    <path d="M78 640C62 560 66 488 100 420C144 468 154 553 128 640H78Z"/>
    <path d="M122 640C118 564 140 499 182 446C210 518 198 583 176 640H122Z"/>
    <path d="M166 640C172 582 198 531 238 492C260 546 252 598 232 640H166Z"/>
    <path d="M416 640C400 564 404 492 438 424C482 472 492 557 466 640H416Z"/>
    <path d="M460 640C456 566 478 501 520 448C548 520 536 585 514 640H460Z"/>
  </g>

  <g fill="#18366E">
    <path d="M230 640C222 608 224 579 238 548C258 568 264 598 254 640H230Z"/>
    <path d="M248 640C258 612 273 586 300 562C308 595 298 620 286 640H248Z"/>
    <path d="M212 640C194 615 182 590 184 560C206 572 220 598 212 640Z"/>

    <path d="M336 640C328 608 330 579 344 548C364 568 370 598 360 640H336Z"/>
    <path d="M354 640C364 612 379 586 406 562C414 595 404 620 392 640H354Z"/>
    <path d="M318 640C300 615 288 590 290 560C312 572 326 598 318 640Z"/>
  </g>

  <g stroke="#15466F" stroke-width="5" stroke-linecap="round" stroke-opacity="0.88">
    <path d="M88 586C74 528 78 481 102 435"/>
    <path d="M104 560C128 520 144 488 154 450"/>
    <path d="M140 592C156 548 180 511 212 482"/>
    <path d="M432 584C416 526 420 479 444 432"/>
    <path d="M450 560C474 519 492 487 502 448"/>
  </g>
</svg>
