<?xml version="1.0" encoding="utf-8"?>
<svg xmlns="http://www.w3.org/2000/svg" xmlns:xlink="http://www.w3.org/1999/xlink" viewBox="-63 -55 209 388" xml:space="preserve">
<g xmlns="http://www.w3.org/2000/svg">
	<g>
		<g>
			<g>
				<path style="fill:#FFF240;" d="M73.608,306.678l-1.377,0.563c3.371,3.739,13.112,8.835,12.836,6.682      C84.813,311.945,81.893,305.174,73.608,306.678z" />
				<path style="fill:#FFF6B3;" d="M75.059,308.493c0,0,3.318,3.098,9.156,5.226C79.766,311.48,76.973,308.854,75.059,308.493z" />
				<path style="fill:#FFF6B3;" d="M84.346,312.739c0,0-2.203-2.965-6.567-5.523C81.014,309.66,82.867,312.171,84.346,312.739z" />
				<path style="fill:#EAD82F;" d="M83.077,312.365c0,0-2.451-2.931-6.902-4.59C79.541,309.689,81.604,312.175,83.077,312.365z" />
				<path style="fill:#EAD82F;" d="M82.242,308.896c-1.801-1.702-4.571-2.956-8.634-2.218l-1.377,0.563      c1.989,2.206,4.902,4.257,7.961,5.64C79.561,309.456,77.371,308.271,82.242,308.896z" />
			</g>
			<g>
				<path style="fill:#FFF240;" d="M68.726,303.911l-1.813,0.201c2.719,5.539,12.493,14.816,12.89,12.185      C80.169,313.881,78.998,304.918,68.726,303.911z" />
				<path style="fill:#FFF6B3;" d="M69.827,306.538c0,0,2.872,4.766,9.04,9.234C74.375,311.639,71.963,307.605,69.827,306.538z" />
				<path style="fill:#FFF6B3;" d="M79.352,314.66c0,0-1.602-4.236-5.888-8.715C76.456,309.911,77.798,313.493,79.352,314.66z" />
				<path style="fill:#EAD82F;" d="M68.726,303.911l-1.813,0.201c0.358,0.73,0.841,1.525,1.407,2.349      c2.421,1.045,5.475,1.909,9.455,2.359C76.153,306.451,73.373,304.366,68.726,303.911z" />
				<path style="fill:#EAD82F;" d="M77.981,313.793c0,0-1.906-4.277-6.596-7.728C74.711,309.452,76.308,313.075,77.981,313.793z" />
			</g>
			<path style="fill:#FFF240;" d="M92.313,238.622c-17.223-3.724-28.394,17.106-33.165,26.998l10.124,32.816     c0,0,13.15,15.012,35.26,16.525c8.475,0.58,8.611-18.037,8.611-31.187C113.143,270.624,109.535,242.346,92.313,238.622z" />
			<g>
				<path style="fill:#FFF6B3;" d="M106.87,311.283c0.653,0.54-5.164,0.806-10.451-0.543c-4.884-1.246-8.501-3.806-8.332-4.206      C96.728,311.442,106.87,311.283,106.87,311.283z" />
				<path style="fill:#FFF6B3;" d="M109.569,308.836c0.644,0.551-5.177,0.716-10.44-0.724c-4.862-1.331-8.434-3.952-8.258-4.349      C99.426,308.819,109.569,308.836,109.569,308.836z" />
				<path style="fill:#FFF6B3;" d="M110.202,305.942c0.61,0.588-5.21,0.414-10.38-1.33c-4.777-1.611-8.19-4.436-7.991-4.823      C100.077,305.335,110.202,305.942,110.202,305.942z" />
				<path style="fill:#FFF6B3;" d="M111.295,302.715c0.61,0.588-5.21,0.414-10.38-1.33c-4.776-1.611-8.19-4.436-7.991-4.823      C101.17,302.108,111.295,302.715,111.295,302.715z" />
				<path style="fill:#FFF6B3;" d="M111.971,298.968c0.61,0.588-5.21,0.414-10.38-1.33c-4.776-1.611-8.19-4.436-7.991-4.823      C101.847,298.361,111.971,298.968,111.971,298.968z" />
				<path style="fill:#FFF6B3;" d="M112.379,294.743c0.586,0.612-5.222,0.2-10.317-1.755c-4.706-1.806-8.001-4.769-7.786-5.147      C102.288,293.72,112.379,294.743,112.379,294.743z" />
				<path style="fill:#FFF6B3;" d="M112.354,290.013c0.606,0.593-5.213,0.372-10.369-1.414c-4.763-1.65-8.154-4.502-7.951-4.887      C102.234,289.324,112.354,290.013,112.354,290.013z" />
			</g>
			<path style="fill:#EAD82F;" d="M91.697,258.759c-11.164-4.305-27.778-3.03-32.549,6.861l10.124,32.816     c0,0,2.725,8.337,13.01,9.923c12.69,1.957,20.147-1.393,23.284-7.27c3.702-6.935,2.177-16.641,7.573-14.482     c0.181-3.309,1.011-9.185-0.653-13.522C105.439,282.745,106.574,264.496,91.697,258.759z" />
			<path style="fill:#FFF6B3;" d="M91.09,240.063c13.097,2.832,19.37,20.911,21.625,35.195c-1.355-14.18-6.338-33.594-20.403-36.635     c-9.692-2.096-17.468,3.585-23.265,10.716C74.7,242.909,82.062,238.111,91.09,240.063z" />
			<g>
				<path style="fill:#EAD82F;" d="M101.198,312.157c-2.982,1.169-16.397-2.561-23.069-8.7l2.808,0.177      C91.652,312.828,101.996,311.845,101.198,312.157z" />
				<path style="fill:#EAD82F;" d="M106.605,310.113c-2.915,1.304-16.444-1.837-23.372-7.693l2.804,0.053      C97.132,311.211,107.385,309.764,106.605,310.113z" />
				<path style="fill:#EAD82F;" d="M109.536,307.591c-2.89,1.307-12.965-1.211-20.721-6.6l1.661-0.842      C101.607,309.198,110.309,307.242,109.536,307.591z" />
				<path style="fill:#EAD82F;" d="M111.28,304.3c-2.11,1.431-10.826-0.543-18.2-5.46l1.195-0.912      C105.11,306.278,111.844,303.917,111.28,304.3z" />
				<path style="fill:#EAD82F;" d="M111.94,300.979c-1.434,1.358-8.606-0.785-15.188-5.788l0.796-0.868      C107.398,302.78,112.324,300.615,111.94,300.979z" />
				<path style="fill:#EAD82F;" d="M112.552,296.856c-0.975,1.491-7.099-0.347-13.142-5.193l0.526-0.947      C109.114,298.978,112.813,296.457,112.552,296.856z" />
				<path style="fill:#EAD82F;" d="M112.053,292.396c-1.185,0.79-5.915-0.473-10.581-3.327c-0.103-0.37-0.175-0.742-0.214-1.115      C108.363,293.359,112.4,292.165,112.053,292.396z" />
				<path style="fill:#EAD82F;" d="M111.368,287.699c-0.861,0.934-4.836,0.042-8.953-2.52c-0.128-0.378-0.231-0.76-0.309-1.147      C108.503,289.042,111.619,287.426,111.368,287.699z" />
				<path style="fill:#EAD82F;" d="M110.413,283.072c-0.729,0.79-4.091,0.035-7.573-2.131c-0.108-0.319-0.196-0.643-0.261-0.97      C107.989,284.208,110.625,282.841,110.413,283.072z" />
			</g>
			<path style="fill:#FFF240;" d="M119.776,261.78c-4.189,0-7.331,15.826-11.172,15.826c-3.84,0-9.659-19.55-29.325-19.55     c-34.213,0-25.252,30.954-30.838,30.954c-3.957,0-6.168,4.538-2.444,4.655c-1.513,0-1.745,2.211,5.586,2.211     s8.03,12.568,34.329,12.568c26.3,0,18.735-23.041,23.856-23.041s10.357,9.775,14.197,9.775c3.084,0,3.607-8.44,3.607-16.408     C127.573,268.646,121.738,261.78,119.776,261.78z" />
			<path style="fill:#FFFF6C;" d="M108.283,278.561c-1.543-0.228-2.911-2.047-4.911-4.742c-4.363-5.879-10.956-14.763-24.092-14.763     c-16.852,0-22.832,7.684-25.385,15.328C78.366,258.066,98.368,281.525,108.283,278.561z" />
			<g>
				<path style="fill:#EAD82F;" d="M83.368,239.817c-3.738,0.312-15.286,10.747-18.521,20.244l2.771-1.578      C73.201,243.9,84.368,239.734,83.368,239.817z" />
				<path style="fill:#EAD82F;" d="M90.1,239.178c-3.748,0.142-15.758,10.042-19.42,19.383l2.84-1.45      C79.759,242.796,91.103,239.14,90.1,239.178z" />
				<path style="fill:#EAD82F;" d="M94.578,240.252c-3.724,0.126-12.564,7.679-17.346,16.963l2.193,0.018      C85.52,242.589,95.575,240.218,94.578,240.252z" />
				<path style="fill:#EAD82F;" d="M98.292,242.693c-2.998-0.388-10.766,5.942-15.434,14.56l1.757,0.321      C90.817,243.779,99.094,242.796,98.292,242.693z" />
				<path style="fill:#EAD82F;" d="M100.914,245.702c-2.263-0.651-8.351,5.079-12.158,13.389l1.324,0.476      C95.208,246.156,101.52,245.876,100.914,245.702z" />
				<path style="fill:#EAD82F;" d="M103.956,249.542c-1.872-1.014-7.065,3.887-10.412,11.771l1.093,0.69      C99.193,249.122,104.457,249.813,103.956,249.542z" />
				<path style="fill:#EAD82F;" d="M106.058,254.275c-1.676-0.204-5.778,3.424-8.884,8.619c0.111,0.423,0.255,0.833,0.434,1.227      C101.715,255.146,106.548,254.334,106.058,254.275z" />
				<path style="fill:#EAD82F;" d="M108.108,259.339c-1.429-0.51-4.976,2.368-7.69,6.995c0.09,0.444,0.208,0.879,0.356,1.307      C104.388,259.417,108.525,259.488,108.108,259.339z" />
				<path style="fill:#EAD82F;" d="M109.841,264.467c-1.209-0.431-4.209,2.003-6.505,5.917c0.076,0.375,0.176,0.744,0.301,1.105      C106.694,264.533,110.194,264.593,109.841,264.467z" />
			</g>
			<path style="fill:#F2DF2F;" d="M110.243,282.275c-17.375,24.25-44.431,15.228-42.427,10.624     c1.687-3.878,0.571-9.581-1.491-12.313c3.864,8.753-4.75,16.093-11.078,16.468c4.846,3.124,9.336,11.39,30.666,11.39     c26.3,0,18.736-23.041,23.856-23.041s10.357,9.775,14.197,9.775c2.985,0,3.57-7.91,3.604-15.644     C122.743,291.275,112.383,282.275,110.243,282.275z" />
			<path style="fill:#F2DF2F;" d="M111.814,277.242c7.603-13.56,10.72-12.832,9.636-13.395c-0.466-0.242-4.22,2.839-9.516,12.123     C111.514,276.706,111.455,277.882,111.814,277.242z" />
			<path style="fill:#F2DF2F;" d="M111.653,278.694c10.477-11.486,13.348-10.07,12.42-10.864c-0.399-0.341-4.753,1.809-12.015,9.652     C111.482,278.104,111.158,279.237,111.653,278.694z" />
			<path style="fill:#F2DF2F;" d="M111.498,280.104c12.716-7.569,14.73-5.299,14.187-6.353c-0.233-0.453-4.673,0.195-13.449,5.33     C111.54,279.488,110.897,280.462,111.498,280.104z" />
			<path style="fill:#F2DF2F;" d="M111.496,281.341c14.17-4.269,15.575-1.579,15.303-2.733c-0.117-0.496-4.582-0.941-14.339,1.918     C111.687,280.753,110.827,281.543,111.496,281.341z" />
			<path style="fill:#F2DF2F;" d="M111.624,282.388c12.27,0.862,14.106,3.637,13.625,2.553c-0.207-0.466-4.429-2.284-12.894-2.947     C111.684,281.941,111.045,282.347,111.624,282.388z" />
			<g>
				<circle style="fill:#EAD82F;" cx="55.781" cy="280.007" r="4.078" />
				<circle style="fill:#FFFFFF;" cx="55.781" cy="280.007" r="3.58" />
				<path style="fill:#2D3739;" d="M56.853,279.777c0,1.171-0.95,2.121-2.121,2.121s-2.121-0.95-2.121-2.121s0.95-2.121,2.121-2.121      S56.853,278.606,56.853,279.777z" />
				<path style="fill:#1E2526;" d="M54.961,279.327c0,0.549-0.445,0.994-0.994,0.994c-0.549,0-0.994-0.445-0.994-0.994      c0-0.549,0.445-0.994,0.994-0.994C54.516,278.333,54.961,278.778,54.961,279.327z" />
				<path style="fill:#FFFFFF;" d="M56.433,279.036c0,0.351-0.285,0.636-0.636,0.636c-0.351,0-0.636-0.285-0.636-0.636      c0-0.351,0.285-0.636,0.636-0.636C56.148,278.4,56.433,278.684,56.433,279.036z" />
				<circle style="fill:#FFFFFF;" cx="55.611" cy="280.096" r="0.411" />
			</g>
			<path style="fill:#FFF6B3;" d="M70.041,257.24c-1.006,0.299,1.989-6.192,6.576-11.277c3.529-3.911,9.557-6.965,9.919-6.431     C75.806,245.383,70.041,257.24,70.041,257.24z" />
			<path style="fill:#FFF6B3;" d="M76.377,256.126c-1.03,0.299,1.81-5.759,6.303-10.476c3.456-3.629,9.478-6.439,9.884-5.968     C81.723,245.267,76.377,256.126,76.377,256.126z" />
			<path style="fill:#FFF6B3;" d="M82.252,255.864c-0.996,0.264,1.15-5.37,5.21-9.463c3.75-3.781,8.696-5.523,9.153-5.105     C86.398,246.237,82.252,255.864,82.252,255.864z" />
			<path style="fill:#FFF6B3;" d="M87.907,256.889c-0.858,0.204,0.652-4.587,3.835-8.145c2.448-2.737,7.286-4.622,7.721-4.243     C90.834,248.557,87.907,256.889,87.907,256.889z" />
			<path style="fill:#FFF6B3;" d="M93.07,258.541c-0.667,0.188,0.397-4.219,2.985-7.297c2.969-3.531,5.766-3.994,6.099-3.667     C95.426,251.219,93.07,258.541,93.07,258.541z" />
			<path style="fill:#FFF6B3;" d="M96.939,260.763c-0.534-0.018,0.824-3.835,3.053-6.269c1.715-1.872,4.765-2.534,4.992-2.094     C99.44,254.009,96.939,260.763,96.939,260.763z" />
			<path style="fill:#FFF6B3;" d="M99.76,263.738c-0.41-0.003,1.081-3.087,3.139-4.994c1.583-1.467,4.114-1.898,4.229-1.565     C102.62,258.518,99.76,263.738,99.76,263.738z" />
			<path style="fill:#FFF6B3;" d="M103.101,267.835c-0.401,0.021,0.72-2.301,2.411-3.949c1.3-1.267,3.521-1.996,3.689-1.736     C105.727,263.69,103.101,267.835,103.101,267.835z" />
			<path style="fill:#FFF6B3;" d="M105.57,271.797c-0.307-0.093,0.736-2.181,2.203-3.334c1.313-1.031,2.622-1.273,2.737-0.948     C107.868,268.713,105.57,271.797,105.57,271.797z" />
			<path style="fill:#FFF6B3;" d="M103.948,314.378c-7.589-0.519-14.346-2.613-19.949-5.14c5.497,2.787,12.555,5.482,20.681,6.038     c7.786,0.533,8.688-15.063,8.455-28.196C112.554,299.925,110.523,314.828,103.948,314.378z" />
			<path style="fill:#FFF6B3;" d="M122.604,266.003c0.322-0.69-2.505,1.063-5.198,3.968c-2.409,2.599-4.245,5.387-4.157,5.717     C117.467,270.236,122.604,266.003,122.604,266.003z" />
			<path style="fill:#FFF6B3;" d="M124.816,271.089c0.492-0.581-2.696,0.369-6.056,2.467c-3.006,1.877-5.509,4.086-5.51,4.427     C118.749,273.828,124.816,271.089,124.816,271.089z" />
			<path style="fill:#FFF6B3;" d="M126.067,276.434c0.638-0.406-2.575-0.415-6.321,0.604c-3.351,0.911-6.355,2.277-6.468,2.596     C119.647,277.29,126.067,276.434,126.067,276.434z" />
			<path style="fill:#FFF6B3;" d="M126.105,281.876c0.721-0.23-2.382-1.06-6.263-1.033c-3.472,0.024-6.724,0.576-6.915,0.856     C119.682,281.062,126.105,281.876,126.105,281.876z" />
			<path style="fill:#FFF6B3;" d="M119.756,262.991c0.179-0.735-1.8,0.238-3.684,3.631c-1.392,2.508-3.931,7.647-3.791,7.956     C116.232,266.942,119.756,262.991,119.756,262.991z" />
		</g>
		<path style="fill:#EAD82F;" d="M45.997,293.666c0,0,4.948-0.031,7.62,0.094c-2.859,0.25-8.828,1.703-8.445,0.338    C45.227,293.682,45.997,293.666,45.997,293.666z" />
		<path style="fill:#FFFF6C;" d="M70.522,292.608l0.212,1.632c5.541,5.482,9.792,5.401,13.02-2.825    c0.907-2.312,1.015-5.378-1.495-6.987C80.038,283.006,72.791,292.192,70.522,292.608z" />
		<path style="fill:#EAD82F;" d="M84.282,289.266c-0.857,4.33-5.045,7.168-9.391,6.346c-1.695-0.321-3.163-1.153-4.279-2.304    l0.121,0.933c5.541,5.482,9.792,5.401,13.02-2.825C84.095,290.545,84.273,289.833,84.282,289.266z" />
		<path style="fill:#F2DF2F;" d="M71.134,292.659c3.78-1.784,9.693-8.78,11.245-7.536C80.413,285.579,72.354,293.481,71.134,292.659    z" />
		<path style="fill:#FFF6B3;" d="M73.024,292.119c3.238-1.923,8.625-6.715,9.969-5.813    C81.291,286.637,74.461,291.775,73.024,292.119z" />
		<path style="fill:#FFF6B3;" d="M72.524,293.244c3.573-1.03,9.517-4.336,11-3.063C81.646,290.042,74.11,293.297,72.524,293.244z" />
		<path style="fill:#FFF6B3;" d="M72.542,294.368c2.323-0.099,6.462,1.305,7.132-0.411C78.571,294.68,73.485,293.822,72.542,294.368    z" />
		<path style="fill:#F2DF2F;" d="M71.157,293.059c4.214-0.995,10.806-6.757,12.537-5.188    C81.502,287.915,72.518,294.135,71.157,293.059z" />
		<path style="fill:#F2DF2F;" d="M71.134,293.528c3.93,0.331,10.077-3.357,11.691-1.244    C80.781,291.639,72.403,295.033,71.134,293.528z" />
	</g>
	<g>
		<path style="fill:#DBC521;" d="M59.986,295.253c0.852-0.309,1.699-0.778,2.51-1.427c3.837-3.067,5.474-8.875,3.828-13.239    c0.121,0.209,0.235,0.427,0.339,0.657c1.797,3.979,0.335,9.538-3.266,12.417C62.3,294.536,61.132,295.056,59.986,295.253z" />
	</g>
</g>
</svg>
