<?xml version="1.0" encoding="utf-8"?>
<svg xmlns="http://www.w3.org/2000/svg" xmlns:xlink="http://www.w3.org/1999/xlink" viewBox="-144 -40 538 474" xml:space="preserve">
<g xmlns="http://www.w3.org/2000/svg">
	<path style="fill:#A9CAD8;" d="M148.824,375.042l25.39,7.268C188.845,374.207,170.343,374.119,148.824,375.042z" />
	<g>
		<path style="fill:#BCDAE8;" d="M140.877,367.597c-1.23-3.382-4.919-15.064-7.993-21.827c-3.074-6.763-23.672,13.219-32.894,23.979    l30.435,6.148C130.425,375.897,142.107,370.978,140.877,367.597z" />
		<path style="fill:#A9CAD8;" d="M140.831,367.664c-0.264,1.674-3.274,2.201-7.003,2.19c1.186-1.598,3.885-5.207,4.507-5.812    c-1.44,0.866-3.997,4.242-5.137,5.807c-0.726-0.013-1.474-0.044-2.23-0.09c1.41-1.902,5.346-7.184,6.216-8.03    c-2.001,1.203-5.63,6.066-7.012,7.977c-0.747-0.054-1.495-0.12-2.235-0.195c1.674-2.26,6.922-9.312,8.058-10.417    c-2.598,1.562-7.357,7.972-9.044,10.313c-0.744-0.083-1.47-0.172-2.166-0.264c0.833-1.129,8.603-11.643,10.131-13.129    c-3.416,2.054-9.964,11.139-11.266,12.974c-0.633-0.09-1.225-0.18-1.772-0.266c1.651-2.234,10.504-14.185,12.306-15.938    c-4.061,2.441-11.716,12.953-13.685,15.712h0c-0.451-0.077-1.104-0.191-1.87-0.345c2.288-3.094,12.005-16.19,14.028-18.157    c-4.542,2.731-12.981,14.209-15.57,17.82c-0.637-0.151-1.304-0.324-1.971-0.524c2.859-3.599,13.795-17.317,16.029-19.415    c-4.81,2.917-14.218,14.743-17.472,18.937c-0.743-0.273-1.448-0.582-2.068-0.928c5.19-5.929,15.576-17.701,17.679-19.376    c-4.08,1.238-14.25,12.586-19.162,18.282c-0.825-0.855-1.094-1.876-0.369-3.09c2.367-3.962,6.116-7.713,9.463-10.862    c-6.817,5.518-14.54,13.459-19.272,18.98l30.435,6.148C130.378,375.964,142.061,371.045,140.831,367.664z" />
	</g>
	<g>
		<path style="fill:#A9CAD8;" d="M178.003,401.528c-0.171,2.388-0.404,10.534-1.139,15.422c-0.735,4.887-17.554-4.148-25.415-9.353    l18.354-9.477C169.803,398.12,178.174,399.14,178.003,401.528z" />
		<path style="fill:#95BAC6;" d="M177.961,401.493c-0.474-1.023-2.495-0.812-4.88-0.126c1.05,0.807,3.434,2.624,3.943,2.898    c-1.079-0.292-3.33-1.987-4.345-2.78c-0.462,0.141-0.935,0.297-1.41,0.464c1.248,0.96,4.729,3.623,5.44,4.006    c-1.499-0.405-4.707-2.856-5.939-3.827c-0.468,0.171-0.935,0.349-1.394,0.531c1.483,1.141,6.125,4.698,7.053,5.198    c-1.947-0.527-6.159-3.761-7.665-4.952c-0.461,0.189-0.909,0.378-1.338,0.564c0.738,0.57,7.625,5.883,8.874,6.556    c-2.559-0.692-8.404-5.313-9.571-6.25c-0.388,0.173-0.751,0.338-1.086,0.493c1.463,1.129,9.304,7.164,10.777,7.957    c-3.043-0.823-9.855-6.155-11.618-7.561l0,0c-0.274,0.131-0.672,0.323-1.133,0.561c2.027,1.563,10.63,8.173,12.282,9.063    c-3.403-0.92-10.893-6.728-13.208-8.566c-0.38,0.212-0.775,0.445-1.165,0.694c2.485,1.782,11.98,8.568,13.792,9.504    c-3.609-0.99-11.782-6.844-14.628-8.935c-0.425,0.31-0.821,0.636-1.154,0.971c4.4,2.848,13.19,8.489,14.84,9.178    c-2.837-0.049-11.41-5.458-15.59-8.208c-0.372,0.697-0.358,1.4,0.327,2.044c2.236,2.104,5.318,3.821,8.033,5.227    c-5.367-2.289-11.755-5.964-15.788-8.635l18.354-9.477C169.762,398.086,178.132,399.106,177.961,401.493z" />
	</g>
	<g>
		<path style="fill:#D2EAF7;" d="M24.778,385.524c0,6.094,31.95,27.245,53.818,27.245c21.867,0,60.225,0,73.131-4.302    c12.906-4.302,26.528-14.698,40.509-14.698c2.89,0,24.651,12.577,32.614,8.604c4.31-2.151-9.312-9.671-9.312-15.948    c0-3.41,13.264-15.24,9.312-16.315c-12.262-3.337-25.085,10.754-32.255,10.754c-18.283,0-112.205-19.358-125.828-13.981    S24.778,385.524,24.778,385.524z" />
		<path style="fill:#BCDAE8;" d="M188.539,388.263c-29.303,13.616-112.344,24.368-112.36,4.306c-0.004-5.224-3.336-9.455-2.73-8.436    c3.492,10.977-0.234,28.307-30.778,16.832c19.989,10.532,29.142,11.804,35.924,11.804c21.867,0,60.225,0,73.131-4.302    c12.906-4.302,26.528-14.698,40.509-14.698c2.89,0,24.651,12.577,32.614,8.604c3.136-1.565-3.216-5.971-6.912-10.673    C216.335,391.801,195.431,385.06,188.539,388.263z" />
		<path style="fill:#6EB3DD;" d="M192.594,380.863c-18.283,0-112.205-19.358-125.828-13.981s-41.988,18.641-41.988,18.641    c16.94-2.863,27.018-4.443,48.672-1.391c53.928,7.601,101.245-10.122,123.048,3.577    C196.498,387.71,192.74,380.863,192.594,380.863z" />
		<path style="fill:#3292CA;" d="M192.594,380.863c-7.665,0-28.192-3.857-50.936-7.432c-31.508-4.952-66.889-9.764-74.8-6.641    c-13.623,5.377-42.08,18.733-42.08,18.733c16.707-4.872,30.222-12.335,52.018-10.567c48.835,3.961,75.195,1.257,101.415,5.509    C187.476,381.968,192.74,380.863,192.594,380.863z" />
		<path style="fill:#3292CA;" d="M215.537,386.424c0-3.41,13.264-15.24,9.312-16.315c-12.029-3.273-24.995,10.775-34.613,10.674    c2.016,1.484,3.022,3.801,3.022,6.878c0,4.431-2.71,6.157-2.71,6.157c4.023-1.315,26.846,12.274,34.3,8.554    C229.159,400.222,215.537,392.702,215.537,386.424z" />
		<path style="fill:#287CA5;" d="M215.537,386.424c0-3.41,13.264-15.24,9.312-16.315c-12.029-3.273-24.102,9.856-33.622,10.722    c0,0,8.168,1.896,28.919-9.478c2.054-1.126-1.23,14.603-21.366,15.217c19.214,0.307,25.124,14.983,21.212,14.142    c-12.143-2.613-26.979-6.795-26.979-6.795c4.837,1.393,24.381,12.176,31.835,8.456    C229.159,400.222,215.537,392.702,215.537,386.424z" />
		<path style="fill:#287CA5;" d="M219.574,401.946c-8.657,0.358-15.633-6.623-24.702-10.024c11.158,2.625,19.63,8.473,21.599,6.623    c2.423-2.276-23.21-9.01-23.21-9.01s23.261,5.971,23.453,4.38c0.191-1.591-9.851-5.336-22.439-5.872    c9.247,0.111,17.482,1.492,11.47-0.658c5.733-0.772,12.045,3.764,14.658,8.375S226.63,401.655,219.574,401.946z" />
		<path style="fill:#287CA5;" d="M220.827,370.561c-8.657-0.358-16.766,7.681-25.836,11.082c11.158-2.625,19.63-8.473,21.599-6.623    c2.423,2.276-23.21,9.01-23.21,9.01s23.262-5.971,23.453-4.381c0.191,1.591-9.851,5.336-22.439,5.872    c9.247-0.111,17.482-1.492,11.47,0.659c5.733,0.772,12.045-3.764,14.658-8.375C223.135,373.194,227.883,370.853,220.827,370.561z" />
	</g>
	<path style="fill:#A9CAD8;" d="M73.225,383.839c0.559,1.397,0.949,2.915,1.118,4.528c0.797,7.626-3.49,14.457-9.673,15.7   c0.339-0.003,0.68-0.022,1.024-0.065c5.942-0.734,10.153-7.13,9.405-14.287C74.871,387.537,74.203,385.544,73.225,383.839z" />
	<g>
		<circle style="fill:#287CA5;" cx="40.368" cy="384.482" r="4.114" />
		<path style="fill:#FFFFFF;" d="M43.98,384.482c0,1.995-1.617,3.612-3.612,3.612c-1.995,0-3.612-1.617-3.612-3.612    c0-1.995,1.617-3.612,3.612-3.612C42.363,380.869,43.98,382.486,43.98,384.482z" />
		<path style="fill:#2D3739;" d="M41.45,384.25c0,1.182-0.958,2.14-2.14,2.14s-2.14-0.958-2.14-2.14c0-1.182,0.958-2.14,2.14-2.14    S41.45,383.068,41.45,384.25z" />
		<path style="fill:#1E2526;" d="M39.541,383.796c0,0.554-0.449,1.003-1.003,1.003c-0.554,0-1.003-0.449-1.003-1.003    c0-0.554,0.449-1.003,1.003-1.003C39.092,382.793,39.541,383.242,39.541,383.796z" />
		<path style="fill:#FFFFFF;" d="M41.025,383.502c0,0.354-0.287,0.642-0.642,0.642c-0.354,0-0.642-0.287-0.642-0.642    c0-0.355,0.287-0.642,0.642-0.642C40.738,382.86,41.025,383.147,41.025,383.502z" />
		<circle style="fill:#FFFFFF;" cx="40.196" cy="384.572" r="0.415" />
	</g>
	<g>
		<g>
			<path style="fill:#A9CAD8;" d="M136.523,411.737c0,0-7.846-5.282-15.614-3.806c-0.43,0.183-1.06,1.539-1.06,1.539     s10.452,13.527,24.901,15.986C140.64,415.932,136.523,411.737,136.523,411.737z" />
		</g>
		<g>
			<path style="fill:#95BAC6;" d="M133.382,411.472c2.384,4.335,4.913,7.912,7.442,11.904c-1.74-3.55-3.577-6.12-5.588-10.207     c-0.385-0.783,0.646-1.387,1.175-0.687c3.141,4.15,7.566,11.987,7.962,12.132c-3.981-8.918-7.851-12.876-7.851-12.876     s-7.846-5.282-15.614-3.806c-0.43,0.183-1.06,1.539-1.06,1.539s3.184,4.114,8.459,8.217c-1.505-1.641-2.912-3.376-4.18-5.217     c-0.499-0.725,0.681-1.405,1.175-0.687c1.956,2.84,4.228,5.437,6.752,7.76c-2.247-2.633-4.001-5.536-5.985-8.394     c-0.502-0.723,0.679-1.403,1.175-0.687c2.143,3.087,3.962,6.34,6.601,9.057c0.659,0.679,1.337,1.332,2.026,1.971     c-2.555-3.141-4.689-6.561-6.928-10.263c-0.456-0.753,0.722-1.437,1.175-0.687c2.011,3.325,3.662,6.732,6.215,9.709     c0.647,0.755,1.317,1.481,2.004,2.189c-2.413-3.161-4.447-6.608-6.131-10.278C131.843,411.367,132.959,410.703,133.382,411.472z" />
		</g>
	</g>
	<g>
		<g>
			<g>
				<path style="fill:#A9CAD8;" d="M86.886,412.681c0,0-10.529-1.894-15.101-7.571c-0.164-0.372,0.544-1.533,0.544-1.533      s19.692-1.156,32.738,6.452C93.653,412.868,86.886,412.681,86.886,412.681z" />
			</g>
		</g>
		<g>
			<g>
				<path style="fill:#95BAC6;" d="M75.978,403.518c2.516,0.661,5.066,1.184,7.754,1.486c3.748,0.422,7.559,0.838,11.022,2.413      c0.124,0.056,0.201,0.136,0.258,0.222c0.691,0.319,0.34,1.484-0.466,1.26c-4.401-1.224-8.872-1.156-13.332-1.873      c3.118,0.796,6.325,1.364,9.647,1.989c0.862,0.162,0.496,1.474-0.362,1.313c-4.573-0.859-8.947-1.636-13.167-3.02      c2.704,1.393,5.543,2.473,8.667,2.873c0.858,0.11,0.869,1.472,0,1.361c-4.853-0.62-9.013-2.701-13.045-5.177      c4.979,4.703,13.93,6.316,13.93,6.316s6.767,0.187,18.18-2.652C95.465,404.43,82.277,403.578,75.978,403.518z" />
			</g>
		</g>
	</g>
</g>
</svg>
