<?xml version="1.0" encoding="utf-8"?>
<svg xmlns="http://www.w3.org/2000/svg" xmlns:xlink="http://www.w3.org/1999/xlink" viewBox="-120 -72 366 280" xml:space="preserve">
<g xmlns="http://www.w3.org/2000/svg">
	<path style="fill:#272F42;" d="M139.631,184.487c9.311,9.483,41.587,3.156,40.955,1.007c-9.889-4.803-14.692-9.606-14.692-9.606   C142.655,177.781,139.631,184.487,139.631,184.487z" />
	<path style="fill:#272F42;" d="M118.346,147.009c30.313,1.755,55.083-3.353,54.329-0.788c-1.13,12.714-15.822,15.257-15.822,15.257   C129.117,159.217,118.346,147.009,118.346,147.009z" />
	<g>
		<path style="fill:#5570BC;" d="M194.973,162.435c0,0,23.629-15.279,26.976-15.279c3.251,0,5.526,40.309,0.325,40.309    c-4.528,0-27.956-11.378-27.956-11.378L194.973,162.435z" />
		<path style="fill:#272F42;" d="M221.949,147.157c-3.347,0-26.976,15.279-26.976,15.279s1.855-0.038,3.806,0.727    c2.053-1.204,5.751-3.077,10.046-5.053c6.691-3.077,12.273-5.226,12.469-4.8c0.196,0.426-5.069,3.265-11.76,6.342    c-3.837,1.765-7.303,3.221-9.604,4.064c0.644,0.374,1.26,0.856,1.78,1.482c2.191-0.668,4.997-1.442,8.071-2.21    c7.145-1.784,13.028-2.862,13.142-2.408c0.114,0.455-5.586,2.27-12.731,4.054c-2.871,0.717-5.536,1.319-7.708,1.755    c0.228,0.461,0.412,0.975,0.539,1.549c2.084-0.177,4.573-0.335,7.25-0.45c7.357-0.318,13.338-0.196,13.358,0.272    c0.02,0.468-5.928,1.105-13.285,1.423c-2.628,0.113-5.078,0.171-7.145,0.176c0.035,0.702,0.003,1.337-0.095,1.904    c2.075,0.425,4.554,0.991,7.208,1.653c7.145,1.784,12.844,3.6,12.731,4.054c-0.114,0.455-5.997-0.623-13.142-2.408    c-2.677-0.669-5.151-1.342-7.193-1.946c-0.305,0.72-0.729,1.3-1.229,1.762c2.202,0.864,5.064,2.089,8.175,3.52    c6.691,3.077,11.956,5.917,11.76,6.342c-0.196,0.426-5.778-1.723-12.469-4.8c-3.428-1.576-6.475-3.088-8.612-4.247    c-2.6,1.407-6.018,0.894-6.018,0.894s23.429,11.378,27.956,11.378C227.475,187.466,225.2,147.157,221.949,147.157z" />
		<path style="fill:#5570BC;" d="M194.973,162.435c6.496,0,6.171,13.653-0.656,13.653c-45.185,0-51.037,10.077-57.39,18.382    c-9.32,12.182-28.311,24.853-56.223,24.853c-49.899,0-47.298-49.144-47.298-53.991c0-4.848,5.105-16.182,44.86-20.451    C126.702,139.68,144.587,162.435,194.973,162.435z" />
		<path style="fill:#D2EAF7;" d="M73.589,170.868c-4.059-7.714-18.362,7.398-33.878,7.721c-4.382,0.091-5.858-2.091-5.858-2.091    c1.765,15.962,9.956,42.825,46.851,42.825c27.912,0,46.903-12.671,56.223-24.853c6.354-8.305,12.939-18.472,58.122-18.029    c7.821,0.077,7.823-3.309,8.152-6.47c0,0-61.101-0.321-101.831-0.235C88.223,169.765,76.922,177.204,73.589,170.868z" />
		<path style="fill:#5570BC;" d="M115.347,168.613c0,2.534-6.484,4.589-14.483,4.589s-14.483-2.054-14.483-4.589    s6.484-4.589,14.483-4.589S115.347,166.079,115.347,168.613z" />
		<ellipse style="fill:#5570BC;" cx="86.454" cy="167.483" rx="13.609" ry="10.382" />
		<path style="fill:#5570BC;" d="M150.245,166.35c0,3.783-4.02,6.85-8.979,6.85c-4.959,0-8.979-3.067-8.979-6.85    c0-3.783,4.02-6.85,8.979-6.85C146.225,159.5,150.245,162.567,150.245,166.35z" />
		<path style="fill:#5570BC;" d="M202.334,168.403c0,2.261-8.915,4.093-19.911,4.093s-19.911-1.833-19.911-4.093    c0-2.261,8.915-4.093,19.911-4.093S202.334,166.142,202.334,168.403z" />
		<path style="fill:#5570BC;" d="M75.199,176.169c0,1.061-1.785,1.921-3.988,1.921c-2.202,0-3.988-0.86-3.988-1.921    c0-1.061,1.785-1.921,3.988-1.921C73.414,174.248,75.199,175.108,75.199,176.169z" />
		<path style="fill:#D2EAF7;" d="M133.793,170.418c0,1.312-4.311,2.376-9.63,2.376c-5.318,0-9.63-1.064-9.63-2.376    c0-1.312,4.312-2.376,9.63-2.376C129.482,168.042,133.793,169.106,133.793,170.418z" />
		<path style="fill:#5570BC;" d="M112.403,174.689c0,0.865-1.434,1.565-3.202,1.565c-1.769,0-3.202-0.701-3.202-1.565    c0-0.865,1.434-1.566,3.202-1.566C110.969,173.124,112.403,173.825,112.403,174.689z" />
		<path style="fill:#5570BC;" d="M66.817,178.857c0,0.865-1.434,1.566-3.202,1.566c-1.769,0-3.202-0.701-3.202-1.566    c0-0.865,1.434-1.565,3.202-1.565C65.384,177.292,66.817,177.992,66.817,178.857z" />
		<path style="fill:#5570BC;" d="M136.701,175.678c0,0.865-1.434,1.566-3.202,1.566c-1.769,0-3.202-0.701-3.202-1.566    s1.434-1.566,3.202-1.566C135.267,174.113,136.701,174.814,136.701,175.678z" />
		<path style="fill:#5570BC;" d="M169.476,172.641c0,0.865-1.434,1.565-3.202,1.565c-1.769,0-3.202-0.701-3.202-1.565    c0-0.865,1.434-1.566,3.202-1.566C168.042,171.076,169.476,171.776,169.476,172.641z" />
		<ellipse style="fill:#5570BC;" cx="177.999" cy="173.63" rx="3.202" ry="1.566" />
		<path style="fill:#5570BC;" d="M197.376,172.782c0,0.865-1.434,1.565-3.202,1.565c-1.769,0-3.202-0.701-3.202-1.565    c0-0.865,1.434-1.566,3.202-1.566C195.943,171.217,197.376,171.918,197.376,172.782z" />
		<path style="fill:#5570BC;" d="M129.729,172.924c0,1.061-3.486,1.921-7.786,1.921c-4.3,0-7.786-0.86-7.786-1.921    c0-1.061,3.486-1.921,7.786-1.921C126.243,171.003,129.729,171.863,129.729,172.924z" />
		<path style="fill:#5570BC;" d="M106.052,176.867c0,1.061-3.486,1.921-7.786,1.921c-4.3,0-7.786-0.86-7.786-1.921    c0-1.061,3.486-1.921,7.786-1.921C102.566,174.947,106.052,175.807,106.052,176.867z" />
		<ellipse style="fill:#5570BC;" cx="143.564" cy="174.03" rx="5.052" ry="1.247" />
		<path style="fill:#5570BC;" d="M166.441,176.058c0,0.462-1.097,0.837-2.451,0.837c-1.354,0-2.451-0.375-2.451-0.837    c0-0.462,1.097-0.837,2.451-0.837C165.344,175.221,166.441,175.596,166.441,176.058z" />
		<path style="fill:#5570BC;" d="M188.762,173.515c0,0.462-1.097,0.837-2.451,0.837s-2.451-0.375-2.451-0.837    c0-0.462,1.097-0.837,2.451-0.837S188.762,173.053,188.762,173.515z" />
		<ellipse style="fill:#5570BC;" cx="156.279" cy="174.514" rx="5.052" ry="1.801" />
		<path style="fill:#5570BC;" d="M176.164,171.335c0,0.994-2.262,1.801-5.052,1.801c-2.79,0-5.052-0.806-5.052-1.801    c0-0.994,2.262-1.801,5.052-1.801C173.902,169.535,176.164,170.341,176.164,171.335z" />
		<ellipse style="fill:#5570BC;" cx="163.194" cy="169.533" rx="7.786" ry="1.921" />
		<path style="fill:#5570BC;" d="M159.074,170.346c0,1.061-3.486,1.921-7.786,1.921s-7.786-0.86-7.786-1.921    s3.486-1.921,7.786-1.921S159.074,169.285,159.074,170.346z" />
		<g>
			<path style="fill:#3D5CA0;" d="M55.874,155.469c0,2.633-2.135,4.768-4.768,4.768c-2.633,0-4.768-2.135-4.768-4.768     s2.135-4.768,4.768-4.768C53.739,150.701,55.874,152.835,55.874,155.469z" />
			<path style="fill:#FFFFFF;" d="M55.292,155.469c0,2.312-1.874,4.186-4.186,4.186c-2.312,0-4.186-1.874-4.186-4.186     s1.874-4.187,4.186-4.187C53.418,151.282,55.292,153.157,55.292,155.469z" />
			<circle style="fill:#2D3739;" cx="49.879" cy="155.201" r="2.48" />
			<path style="fill:#1E2526;" d="M50.147,154.675c0,0.642-0.52,1.163-1.162,1.163c-0.642,0-1.162-0.521-1.162-1.163     s0.521-1.162,1.162-1.162C49.627,153.512,50.147,154.033,50.147,154.675z" />
			<path style="fill:#FFFFFF;" d="M51.868,154.334c0,0.411-0.333,0.744-0.744,0.744s-0.744-0.333-0.744-0.744     c0-0.411,0.333-0.744,0.744-0.744S51.868,153.923,51.868,154.334z" />
			<circle style="fill:#FFFFFF;" cx="50.907" cy="155.574" r="0.481" />
		</g>
		<path style="fill:#5570BC;" d="M39.669,165.043c0.475-0.359,0.787-0.923,0.787-1.564c0-1.085-0.88-1.965-1.965-1.965h-5.293    c-1.085,0-1.965,0.88-1.965,1.965c0,0.641,0.312,1.205,0.787,1.564c-0.475,0.359-0.787,0.923-0.787,1.564    c0,1.085,0.88,1.965,1.965,1.965h5.293c1.085,0,1.965-0.88,1.965-1.965C40.456,165.966,40.144,165.402,39.669,165.043z" />
		<path style="fill:#3D5CA0;" d="M32.019,165.043c1.745,0.658,7.76,0.376,7.76,0.376c-0.356-0.223-0.882-0.376-1.653-0.376    c-6.343,0-6.869-1.359-6.869-1.359C31.317,164.238,31.597,164.724,32.019,165.043z" />
		<g>
			<path style="fill:#BCDAE8;" d="M132.016,189.562c-11.157,8.164-24.85,14.723-50.789,14.723c-21.535,0-39.439-9.056-46.879-24.157     c2.609,16.087,12.135,39.195,46.356,39.195c27.912,0,46.903-12.671,56.223-24.853c6.354-8.305,12.939-18.472,58.122-18.029     c3.86,0.038,5.814-0.768,6.844-1.974C160.204,174.104,147.415,178.295,132.016,189.562z" />
		</g>
	</g>
	<path style="fill:#272F42;" d="M117.537,165.371c-0.38,2.808-7.464,32.092-33.861,9.668c-5.322-4.52-0.89-7.921,1.083-8.91   C87.863,164.573,118.202,160.448,117.537,165.371z" />
</g>
</svg>
