<?xml version="1.0" encoding="utf-8"?>
<svg xmlns="http://www.w3.org/2000/svg" xmlns:xlink="http://www.w3.org/1999/xlink" viewBox="-58 -51 342 150" xml:space="preserve">
<g xmlns="http://www.w3.org/2000/svg">
	<g>
		<g>
			<path style="fill:#AB0800;" d="M224.038,53.125c11.842-18.726,24.857-6.557,38.319-11.832c2.069-0.811-2.99,8.288-7.84,11.633     c-4.85,3.346-18.534-6.573-28.711,0.936C224.038,53.125,224.038,53.125,224.038,53.125z" />
			<path style="fill:#990000;" d="M256.078,49.372c-2.23,0.784-4.704,0.256-6.984,0.977c-1.025,0.324-3.105,1.329-4.045,0.543     c0.929-0.695,2.079-0.8,3.063-1.497c2.193-1.551,4.759-1.55,7.102-2.429c1.569-0.588,5.625-2.185,6.211-4.757     c-0.727,0.343-1.371,1.092-2.08,1.532c-3.246,2.018-6.511,3.186-10.003,3.709c-2.177,0.326-4.146,1.85-6.257,2.58     c-2.155,0.745-4.414,0.122-6.604,0c-1.233-0.069-2.449-0.003-3.656,0.384c-0.842,0.27-1.814,0.967-2.665,0.415     c0.645-1.181,2.045-1.578,2.996-1.976c2.135-0.891,4.254-0.66,6.446-0.721c2.541-0.071,4.67-0.883,7.134-1.645     c3.24-1.001,6.859,0.111,9.704-2.902c-1.573,0.971-3.585,0.776-5.259,0.955c-1.925,0.207-3.827,0.688-5.749,0.953     c-2.099,0.29-4.202,0.164-6.3,0.442c-2.087,0.277-4.258,1.341-6.212,2.431c-1.17,0.652-2.614,2.06-3.899,1.611     c0.314-2.632,5.536-3.773,6.983-4.293c4.275-1.536,8.721-1.213,12.97-2.747c-0.979,0.285-2.037,0.19-3.027,0.17     c-2.939-0.06-5.794,0.188-8.704,0.844c-1.824,0.411-3.538,1.345-5.211,2.479c-1.066,0.723-2.501,2.601-3.745,2.277     c0.093-0.787,0.728-1.238,1.173-1.617c1.429-1.214,2.977-2.04,4.555-2.724c1.234-0.534,2.809-1.728,4.047-1.881     c-2.513,0.425-4.985,1.358-7.267,2.984c-1.244,0.887-2.422,1.964-3.525,3.187c-0.411,0.456-3.124,4.556-3.34,4.466     c0.004,0.002,0.091,0.038,1.767,0.736c10.178-7.508,23.861,2.41,28.711-0.936c3.031-2.091,6.144-6.429,7.548-9.19     C260.342,45.944,258.3,48.591,256.078,49.372z" />
		</g>
		<path style="fill:#AB0800;" d="M254.315,57.903c0.219-0.467,0.391-0.809,0.495-0.979c5.855-9.57,11.984-13.479,20.771-14.066    c4.363-0.292,8.58-1.121,12.908-1.583c3.037,9.532,4.434,16.15,2.994,26.857c-0.962,7.154-1.515,11.93-0.397,19.221    c0.758,4.943,3.986,18.63,2.835,19.048c-11.56,4.196-37.127-22.382-39.496-32.705C254.221,72.8,252.884,60.951,254.315,57.903z" />
		<path style="fill:#990000;" d="M265.518,81.025c1.451,1.761,3.208,2.962,4.729,4.587c1.794,1.917,3.519,4.244,5.382,5.994    c2.043,1.92,4.26,3.313,6.246,5.393c1.869,1.957,3.967,3.078,6.216,3.685c1.921,0.519,3.864,0.863,5.745,1.485    c-0.083-0.551-0.18-1.139-0.285-1.751c-3.625-2.357-7.62-2.575-11.246-4.997c-1.909-1.275-3.539-3.053-5.286-4.721    c-3.023-2.885-7.298-4.937-9.671-9.027c5.927,0.731,10.268,9.036,15.819,11.546c2.482,1.122,5.111,1.321,7.577,2.499    c0.75,0.358,1.468,0.789,2.175,1.255c-0.206-1.073-0.42-2.155-0.628-3.209c-1.113-1.014-2.201-1.82-3.636-2.218    c-1.719-0.476-3.404-1.18-5.101-1.799c-1.757-0.641-3.487-1.336-5.169-2.329c-1.747-1.032-3.31-2.561-5.09-3.518    c-3.693-1.986-9.775-5.205-11.759-10.656c1.144,0.245,1.994,1.591,2.996,2.186c-0.388-0.231-1.501-2.974-2.046-3.6    c-1.055-1.214-2.228-2.257-3.588-2.503c0.124-1.048,0.195-2.116-0.003-3.181c1.966,1.521,3.352,4.072,5.047,6.079    c3.811,4.513,8.505,8.154,13.031,10.809c3.572,2.096,7.087,2.504,10.856,3.215c1.106,0.209,2.19,0.509,3.236,0.95    c-0.04-0.266-0.074-0.523-0.109-0.783c-1.64-0.988-3.376-1.402-5.121-1.947c-1.987-0.62-3.888-1.533-5.905-1.968    c-2.257-0.487-5.584-0.994-7.219-3.646c-0.251-0.407-0.061-0.95,0.284-1.007c1.293-0.214,2.312,0.555,3.52,1.115    c1.58,0.732,3.183,1.42,4.787,2.03c1.687,0.642,3.384,1.096,5.104,1.505c1.345,0.32,2.804,0.994,4.203,1.006    c-1.679-1.673-3.958-1.898-5.873-2.612c-3.046-1.136-6.06-2.764-9.148-3.61c-2.368-0.649-4.823-1.078-7.111-2.236    c-1.157-0.586-2.733-1.289-3.111-3.214c-0.08-0.407,0.137-0.697,0.387-0.747c1.28-0.252,2.394,0.692,3.584,1.279    c1.405,0.694,2.83,1.382,4.259,1.961c2.827,1.147,5.753,1.603,8.583,2.747c2.639,1.067,5.218,2.399,7.821,3.633    c0.156,0.074,0.32,0.156,0.488,0.239c-0.01-0.345-0.016-0.688-0.018-1.028c-0.149,0.001-0.299,0.002-0.448,0.003    c-0.435-0.065-0.89-0.106-1.313-0.287c-2.69-1.147-4.873-4.069-7.671-4.744c-2.62-0.632-5.222-0.452-7.711-1.979    c-1.179-0.724-2.278-1.768-3.496-2.356c-1.238-0.598-2.519-0.881-3.791-1.283c-2.37-0.749-4.57-1.759-6.603-3.738    c-0.342-0.332-0.199-1.058,0.203-1.099c2.9-0.301,5.778,1.847,8.647,2.352c2.832,0.498,5.453,1.398,8.194,2.527    c2.832,1.167,6.094,1.323,8.682,3.514c1.84,1.558,3.551,2.83,5.41,3.591c0.077-1.221,0.195-2.458,0.339-3.743    c-1.69-0.013-3.368-0.533-5.007-1.354c-1.598-0.8-3.141-1.737-4.809-2.194c-1.373-0.376-2.77-0.624-4.131-1.088    c-3.132-1.068-6.198-1.7-9.362-2.467c-0.654-0.159-3.056-0.433-3.306-1.778c-0.126-0.677,0.515-0.984,0.725-0.458    c0.014,0.002,0.026-0.005,0.041-0.001c2.911,0.753,5.654-0.849,8.544-0.305c2.531,0.476,4.994,0.384,7.526,0.611    c1.374,0.123,2.65,1.045,4.038,1.101c1.198,0.048,2.373-0.075,3.563-0.283c0.881-0.154,2.083-0.193,3.177-0.475    c0.018-0.252,0.023-0.492,0.038-0.74c-1.418,0.39-2.911,0.446-4.176,0.473c-1.475,0.031-3.097,0.121-4.513-0.593    c-1.133-0.571-2.387-1.566-3.614-1.491c-1.184,0.072-2.35,0.344-3.536,0.33c-0.528-0.006-0.504-1.101,0-1.18    c3.149-0.49,6.283-1.445,9.396-2.286c2.2-0.594,4.294-1.442,6.33-2.67c-0.004-0.046-0.006-0.094-0.011-0.14    c-2.966,1.459-6.312,1.593-9.419,2.182c-1.496,0.284-3.039,0.615-4.458,1.4c-1.395,0.773-2.707,1.581-4.215,1.753    c-1.984,0.226-3.988,0.09-5.952,0.628c-1.454,0.398-2.888,0.822-4.365,0.978c-0.401,0.042-0.546-0.83-0.203-1.099    c2.313-1.812,4.706-2.107,7.274-2.345c3.102-0.288,5.685-2.764,8.688-3.576c2.945-0.797,5.882-1.684,8.782-2.784    c-0.191,0.051-0.382,0.096-0.575,0.133c-1.866,0.355-3.757,0.204-5.619,0.559c-1.844,0.351-3.607,1.124-5.375,1.938    c-1.79,0.825-3.566,1.589-5.43,1.958c-1.568,0.31-3.242,0.033-4.78,0.61c-2.372,0.89-4.274,4.452-6.857,3.653    c-0.339-0.105-0.394-0.845-0.096-1.078c2.275-1.781,4.771-3.675,7.326-4.323c1.495-0.379,3.042-0.305,4.512-0.892    c1.41-0.563,2.769-1.302,4.135-2.057c3.085-1.705,6.232-2.345,9.39-3.611c1.344-0.538,2.547-1.448,3.751-2.344    c-1.81,0.866-3.684,1.506-5.62,2.006c-2.594,0.67-5.085,1.188-7.522,2.741c-1.853,1.181-3.666,2.352-5.678,2.757    c-0.004,0.002-0.008,0.005-0.012,0.007c0-0.001,0-0.003,0-0.004c-0.036,0.007-0.07,0.019-0.106,0.025    c-0.475,0.088-0.505-0.951-0.107-1.159c2.223-1.16,4.155-3.398,6.443-4.303c2.255-0.893,4.547-1.04,6.854-1.457    c1.292-0.234,2.599-0.736,3.812-1.433c0.324-0.186,1.936-0.947,0.752-1.262c-1.264-0.336-2.526-0.135-3.776,0.25    c-4.669,1.439-9.27,3.102-13.587,6.162c-2.305,1.634-4.78,3.092-6.988,4.986c-1.314,1.127-2.583,2.77-4.192,2.479    c-0.326-0.059-0.559-0.612-0.284-1.007c1.91-2.744,4.936-4.277,7.265-6.155c2.567-2.07,5.192-4.181,8.003-5.457    c4.397-1.995,9.354-1.47,13.66-3.703c-3.511,1.303-7.441,1.31-10.8,2.209c-3.842,1.029-7.581,2.355-11.044,5.099    c-1.309,1.037-2.571,2.223-3.906,3.184c-1.219,0.878-2.447,1.696-3.336,3.259c-0.104,0.183-0.229,0.216-0.344,0.171    c-0.287,0.254-0.747-0.045-0.599-0.612c0.791-3.027,3.755-4.808,5.519-6.357c2.859-2.51,5.872-4.381,9.132-5.438    c2.585-0.838,5.216-1.354,7.84-1.914c-1.369,0.173-2.744,0.323-4.134,0.416c-8.787,0.587-14.916,4.496-20.771,14.066    c-0.104,0.17-0.276,0.512-0.495,0.979c-1.431,3.048-0.095,14.897,0.111,15.792c1.318,5.741,9.812,16.51,19.081,24.216    c-5.193-4.318-9.236-11.372-13.883-16.77c-0.31-0.359-4.865-5.163-4.119-6.229c0.025-0.036,0.05-0.073,0.075-0.11    c1.205,0.022,2.174,1.433,3.155,2.32c2.444,2.208,4.711,5.805,6.997,8.925c3.469,4.736,7.286,8.862,11.341,12.451    c3.587,3.174,7.308,6.018,11.273,7.984c1.407,0.334,2.732,0.441,3.947,0.294c-2.759-0.999-5.346-2.714-7.961-4.49    c-3.502-2.378-7.196-4.049-10.14-7.872c-3.145-4.083-6.586-7.625-9.864-11.467c-2.832-3.318-5.247-6.444-7.755-10.17    c0.425-0.032,0.766-0.273,1.004-0.658c0.237-0.384,0.371-0.911,0.384-1.515c0.238,0.819,0.735,1.548,1.066,2.05    c0.059-0.23-0.025-0.507,0.023-0.741c1.39,1.347,1.417,4.42,2.902,5.597c0.016-0.454,0.015-1.718-0.259-2.052    C263.077,77.149,264.134,79.345,265.518,81.025z" />
		<path style="fill:#990000;" d="M223.065,79.214c0,0,1.182,4.201,4.953,2.65c3.771-1.551,7.158-2.388,8.555-1.639    c1.397,0.75,0.118-2.816-2.674-3.359c-2.792-0.543-7.365,3.564-10.465,1.986C223.065,79.214,223.065,79.214,223.065,79.214z" />
		<path style="fill:#CC2600;" d="M254.439,57.706c-11.748,0-21.52-8.498-36.314-4.743c-11.097,2.816-24.197,7.754-24.613,10.079    c-0.673,3.755,6.052,12.056,17.754,16.206s20.847-4.546,23.672-5.731c2.824-1.186,15.677-0.159,18.829,0.198    C259.012,74.307,260.399,57.706,254.439,57.706z" />
		<path style="fill:#BA1A00;" d="M251.274,68.783c-5.957-0.823-12.256-2.135-18.2-0.545c-3.189,0.853-5.771,2.787-8.593,5.006    c-1.964,1.544-3.989,2.738-6.244,2.857c-1.762,0.093-3.985-0.044-5.393-1.854c-1.468-1.887-1.524-4.874-2.563-7.036    c-0.867,7.703-6.524,7.677-11.226,5.01c3.005,2.65,7.14,5.229,12.211,7.028c11.701,4.15,20.847-4.546,23.672-5.731    c2.824-1.186,15.677-0.159,18.829,0.198c1.898,0.214,3.287-1.825,4.009-4.511C255.616,69.444,253.359,69.071,251.274,68.783z" />
		<path style="fill:#D2EAF7;" d="M228.415,73.689c-2.672-0.278-5.235-0.895-7.823-1.91c-1.823-0.714-3.816-1.599-5.229-3.536    c-0.806-1.105-1.58-2.557-2.555-3.347c-1.767-1.43-3.099-0.167-4.562,1.347c-1.685,1.744-3.598,2.945-5.678,3.137    c-2.646,0.245-5.426-0.281-7.802-1.99c2.44,4.011,8.223,9.022,16.5,11.958c10.898,3.865,19.577-3.41,22.999-5.385    C232.312,73.945,230.36,73.892,228.415,73.689z" />
		<path style="fill:#BCDAE8;" d="M224.817,73.081c-0.113,0.088-0.223,0.173-0.337,0.262c-1.964,1.543-3.989,2.738-6.244,2.857    c-1.762,0.093-3.985-0.044-5.393-1.854c-1.468-1.888-1.524-4.874-2.563-7.036c-0.866,7.694-6.511,7.677-11.21,5.018    c3.003,2.647,7.129,5.222,12.195,7.019c10.898,3.865,19.577-3.41,22.999-5.385c-1.953-0.018-3.905-0.071-5.85-0.274    C227.197,73.562,226.003,73.355,224.817,73.081z" />
		<path style="fill:#AB0800;" d="M218.899,79.616c0,0,0.822,5.706,5.825,5.048c5.003-0.658,9.409-0.549,11.052,0.878    c1.643,1.427,0.598-3.511-2.838-5.157c-3.435-1.646-9.859,1.961-13.516-1.097C218.899,79.616,218.899,79.616,218.899,79.616z" />
		<path style="fill:#FF4400;" d="M210.949,57.292c22.823-5.208,38.542,2.606,41.244,1.545c-10.693-1.61-20.842-8.48-33.969-5.393    c-10.433,2.453-22.756,6.878-23.156,9.074c-0.003,0.019-0.004,0.039-0.007,0.058C195.062,62.576,198.553,60.12,210.949,57.292z" />
	</g>
	<g>
		<circle style="fill:#990000;" cx="202.62" cy="64.581" r="4.108" />
		<path style="fill:#FFFFFF;" d="M206.227,64.581c0,1.992-1.615,3.607-3.607,3.607s-3.607-1.615-3.607-3.607    c0-1.992,1.615-3.607,3.607-3.607S206.227,62.589,206.227,64.581z" />
		<path style="fill:#2D3739;" d="M203.701,64.35c0,1.18-0.957,2.136-2.136,2.136c-1.18,0-2.137-0.956-2.137-2.136    c0-1.18,0.956-2.137,2.137-2.137C202.744,62.213,203.701,63.17,203.701,64.35z" />
		<path style="fill:#1E2526;" d="M201.795,63.897c0,0.553-0.448,1.002-1.001,1.002s-1.001-0.448-1.001-1.002    c0-0.553,0.448-1.001,1.001-1.001S201.795,63.344,201.795,63.897z" />
		<path style="fill:#FFFFFF;" d="M203.277,63.603c0,0.354-0.287,0.641-0.641,0.641c-0.354,0-0.641-0.287-0.641-0.641    s0.287-0.641,0.641-0.641C202.99,62.962,203.277,63.249,203.277,63.603z" />
		<circle style="fill:#FFFFFF;" cx="202.449" cy="64.671" r="0.414" />
	</g>
</g>
</svg>
