<?xml version="1.0" encoding="utf-8"?>
<svg xmlns="http://www.w3.org/2000/svg" xmlns:xlink="http://www.w3.org/1999/xlink" viewBox="-87 -38 537 478" xml:space="preserve">
<g xmlns="http://www.w3.org/2000/svg">
	<g>
		<path style="fill:#D2EAF7;" d="M354.973,402.671l-21.719,4.721c4.721,8.027,12.748,19.83,16.997,18.65    c4.249-1.18,3.541-6.846,5.43-7.082c2.125-0.944,3.069-6.138,2.597-7.082C359.222,409.773,362.527,407.156,354.973,402.671z" />
		<path style="fill:#A9CAD8;" d="M349.888,421.681c0.393,0.074-4.499-1.946-10.505-13.413c-0.37-0.707-1.108-2.594-1.308-2.419    c-0.269,0.234,0.275,1.891,0.749,2.751C339.208,409.297,345.008,420.765,349.888,421.681z" />
		<path style="fill:#A9CAD8;" d="M354.973,402.671l-21.719,4.721c1.273,2.164,2.787,4.603,4.402,6.988    c7.497-2.673,14.826-5.523,21.892-7.467C359.046,405.705,357.739,404.314,354.973,402.671z" />
		<path style="fill:#A9CAD8;" d="M353.106,416.838c0.403-0.002-4.685-1.049-11.579-11.11c-0.425-0.62-1.306-2.323-1.496-2.115    c-0.255,0.279,0.414,1.794,0.954,2.544C341.424,406.766,348.11,416.866,353.106,416.838z" />
		<path style="fill:#A9CAD8;" d="M355.694,412.67c0.352-0.065-4.163-0.155-10.797-7.597c-0.409-0.459-1.282-1.763-1.435-1.557    c-0.206,0.276,0.469,1.455,0.987,2.006C344.869,405.968,351.323,413.476,355.694,412.67z" />
		<path style="fill:#A9CAD8;" d="M358.309,409.168c0.351-0.13-4.218,0.631-11.452-5.389c-0.446-0.371-1.421-1.48-1.562-1.251    c-0.189,0.309,0.578,1.332,1.141,1.773C346.892,404.659,353.951,410.776,358.309,409.168z" />
		<g>
			<path style="fill:#D2EAF7;" d="M363.708,364.645c-0.236-0.944-0.472-2.833-4.013-3.305c-0.708-1.18-0.944-3.305-4.485-3.777     c-0.472-0.944-1.889-2.597-5.194-3.541c-0.708-1.18-2.833-3.541-6.61-3.777c-0.944-1.18-4.013-2.361-11.804,0     c-5.43-1.18-11.095,8.735-13.456,16.761l39.424,8.971C374.095,372.672,366.305,366.298,363.708,364.645z" />
			<path style="fill:#A9CAD8;" d="M358.918,373.035c-4.785-2.194-9.404-4.883-14.345-6.721c-4.356-1.62-8.84-3.018-13.456-3.659     c-3.761-0.522-7.534-0.409-11.311-0.296c-0.655,1.558-1.217,3.136-1.661,4.647l39.424,8.971c2.095-0.419,3.798-0.888,5.172-1.39     C361.453,374.116,360.174,373.612,358.918,373.035z" />
			<path style="fill:#A9CAD8;" d="M329.64,352.592c0.482-0.265-5.081,3.876-8.357,15.86c-0.202,0.739-0.415,2.578-0.745,2.55     c-0.442-0.037-0.391-1.597-0.114-2.508C320.648,367.755,323.656,355.88,329.64,352.592z" />
			<path style="fill:#A9CAD8;" d="M340.17,352.193c-0.208,0.076-6.562,3.282-14.946,16.981c-0.506,0.826-1.47,2.938-1.794,2.843     c-0.434-0.127,0.252-1.942,0.904-2.956C324.862,368.238,332.749,354.911,340.17,352.193z" />
			<path style="fill:#A9CAD8;" d="M347.064,354.549c0.624-0.128-7.2,2.534-17.308,14.566c-0.623,0.742-1.891,2.686-2.197,2.544     c-0.411-0.19,0.538-1.883,1.334-2.789C329.675,367.98,338.559,356.288,347.064,354.549z" />
			<path style="fill:#A9CAD8;" d="M351.867,358.816c-0.053,0.005-7.382,1.627-18.873,12.472c-0.705,0.665-2.188,2.45-2.476,2.274     c-0.386-0.236,0.752-1.808,1.647-2.616C332.89,370.29,343.993,359.495,351.867,358.816z" />
			<path style="fill:#A9CAD8;" d="M355.715,362.514c0.552,0.014-6.572,0.74-17.445,8.935c-0.67,0.505-2.119,1.9-2.35,1.721     c-0.31-0.24,0.82-1.485,1.668-2.095C338.276,370.581,348.869,362.347,355.715,362.514z" />
			<path style="fill:#A9CAD8;" d="M359.643,365.56c0.547,0.077-6.614-0.019-18.355,6.875c-0.724,0.425-2.323,1.645-2.532,1.44     c-0.28-0.274,0.986-1.381,1.898-1.89C341.393,371.572,352.861,364.608,359.643,365.56z" />
			<path style="fill:#A9CAD8;" d="M362.404,370.956c0.521,0.182-6.484-1.305-19.341,3.173c-0.793,0.276-2.598,1.161-2.764,0.92     c-0.222-0.323,1.235-1.163,2.229-1.485C343.334,373.303,355.938,368.703,362.404,370.956z" />
		</g>
		<path style="fill:#6EB3DD;" d="M244.019,384.162c14.403-9.418,38.952-19.122,75.307-19.122c36.355,0,50.284,20.538,70.35,13.456    c20.066-7.082,38.244-14.637,39.896-0.236c1.652,14.4-9.679,17.037-7.082,32.126c2.597,15.089-15.817,24.296-32.814,5.646    c-16.997-18.65-42.021-6.846-67.667-2.027C280.691,421.77,237.881,388.176,244.019,384.162z" />
		<path style="fill:#3292CA;" d="M376.123,404.074c-23.697-7.488-49.661-1.232-68.515-1.595c-3.997-0.077-8.1-0.317-11.982-1.35    c-2.664-0.709-6.036-1.606-8.051-3.635c-3.39-3.415-4.35-9.802-8.59-12.237c1.868,4.089,3.25,9.266,0.689,13.147    c-2.517,3.813-6.837,4.397-11.09,3.682c-8.422-1.417-17.219-8.176-20.084-13.618c-3.48,0.133-4.829-2.087-4.829-2.087    c3.352,8.509,41.438,34.56,78.338,27.626c25.646-4.819,50.669-16.623,67.667,2.027    C389.676,416.032,385.492,407.035,376.123,404.074z" />
		<path style="fill:#D2EAF7;" d="M429.572,378.26c-2.509-18.112-26.439-3.394-45.113,1.5c-1.065,1.335,3.29,9.03,0.547,16.416    c-4.938,13.294,2.934,18.763,8.191,23.312c15.91,13.894,31.711,4.949,29.293-9.102    C419.893,395.298,431.561,392.618,429.572,378.26z" />
		<path style="fill:#A9CAD8;" d="M423.245,371.966c0.647,0.156-8.893-0.621-32.763,7.882c-1.472,0.524-5.05,2.072-5.094,1.77    c-0.058-0.405,2.94-1.827,4.764-2.451C391.63,378.661,415.215,370.035,423.245,371.966z" />
		<path style="fill:#A9CAD8;" d="M428.303,378.388c0.678,0.216-9.491-1.463-36.125,4.739c-1.642,0.382-5.666,1.584-5.678,1.279    c-0.016-0.409,3.369-1.54,5.401-1.988C393.547,382.054,419.889,375.703,428.303,378.388z" />
		<path style="fill:#A9CAD8;" d="M428.346,384.558c0.673,0.261-9.414-2.097-35.827,2.281c-1.629,0.27-5.619,1.194-5.631,0.89    c-0.016-0.408,3.341-1.306,5.356-1.615C393.877,385.863,420,381.317,428.346,384.558z" />
		<path style="fill:#A9CAD8;" d="M424.963,391.668c0.619,0.323-8.656-2.969-32.888-1.103c-1.494,0.115-5.153,0.659-5.166,0.355    c-0.017-0.408,3.061-0.984,4.909-1.101C393.317,389.723,417.28,387.662,424.963,391.668z" />
		<path style="fill:#A9CAD8;" d="M422.17,397.528c0.574,0.354-8.014-3.411-30.398-2.815c-1.38,0.037-4.759,0.388-4.772,0.084    c-0.018-0.407,2.824-0.82,4.532-0.841C392.915,393.939,415.05,393.135,422.17,397.528z" />
		<path style="fill:#A9CAD8;" d="M414.988,421.456c0.593-0.099-7.613-0.032-24.477-9.452c-1.04-0.581-3.472-2.243-3.614-1.969    c-0.19,0.368,1.804,1.875,3.101,2.571C391.05,413.171,407.634,422.684,414.988,421.456z" />
		<path style="fill:#A9CAD8;" d="M419.157,415.117c0.655-0.138-8.468,0.524-27.637-7.233c-1.182-0.478-3.96-1.887-4.106-1.615    c-0.196,0.365,2.088,1.658,3.562,2.227C392.169,408.959,411.031,416.824,419.157,415.117z" />
		<path style="fill:#A9CAD8;" d="M419.201,403.873c0.614,0.406-8.072-4.023-27.296-4.349c-1.185-0.02-4.002,0.212-4.113-0.116    c-0.149-0.44,2.18-0.763,3.655-0.711C392.643,398.739,411.583,398.829,419.201,403.873z" />
		<path style="fill:#A9CAD8;" d="M419.586,408.139c0.678-0.191-8.757,1.214-28.481-4.985c-1.216-0.382-4.072-1.565-4.225-1.281    c-0.206,0.381,2.14,1.488,3.656,1.938C391.765,404.176,411.17,410.509,419.586,408.139z" />
		<path style="fill:#287CA5;" d="M280.745,398.915c4.032-7.615-1.092-13.432-1.871-13.88c1.868,4.089,3.25,9.266,0.689,13.147    c-2.517,3.813-6.837,4.397-11.09,3.682c-1.707-0.287-3.393-0.728-5.051-1.291C265.399,402.039,276.741,406.478,280.745,398.915z" />
		<g>
			<path style="fill:#287CA5;" d="M265.181,383.72c0,2.464-1.997,4.461-4.461,4.461c-2.464,0-4.461-1.997-4.461-4.461     c0-2.464,1.997-4.461,4.461-4.461C263.184,379.259,265.181,381.256,265.181,383.72z" />
			<circle style="fill:#FFFFFF;" cx="260.72" cy="383.72" r="3.917" />
			<path style="fill:#2D3739;" d="M261.893,383.469c0,1.281-1.039,2.32-2.32,2.32s-2.32-1.039-2.32-2.32     c0-1.281,1.039-2.32,2.32-2.32S261.893,382.188,261.893,383.469z" />
			<circle style="fill:#1E2526;" cx="258.736" cy="382.977" r="1.088" />
			<path style="fill:#FFFFFF;" d="M261.433,382.658c0,0.384-0.312,0.696-0.696,0.696c-0.384,0-0.696-0.312-0.696-0.696     c0-0.384,0.312-0.696,0.696-0.696C261.122,381.962,261.433,382.274,261.433,382.658z" />
			<path style="fill:#FFFFFF;" d="M260.984,383.818c0,0.248-0.201,0.45-0.45,0.45c-0.248,0-0.449-0.201-0.449-0.45     c0-0.248,0.201-0.449,0.449-0.449C260.783,383.369,260.984,383.57,260.984,383.818z" />
		</g>
	</g>
	<g>
		<g>
			<g>
				<path style="fill:#3292CA;" d="M323.377,367.874c-1.574,0.198-2.92,0.9-3.798,1.856c0.676-0.386,1.487-0.665,2.382-0.777      c2.612-0.328,4.912,0.862,5.138,2.657c0.226,1.796-1.709,3.517-4.321,3.845c-0.894,0.112-1.75,0.043-2.5-0.164      c1.087,0.708,2.564,1.056,4.138,0.859c2.966-0.373,5.137-2.527,4.85-4.813C328.979,369.052,326.342,367.501,323.377,367.874z" />
				<path style="fill:#3292CA;" d="M327.526,374.789c-1.586-0.033-3.02,0.467-4.027,1.285c0.725-0.284,1.568-0.442,2.469-0.423      c2.632,0.055,4.735,1.566,4.698,3.375c-0.038,1.809-2.201,3.232-4.833,3.178c-0.901-0.019-1.737-0.211-2.45-0.525      c0.972,0.859,2.384,1.417,3.97,1.45c2.988,0.062,5.449-1.755,5.497-4.058C332.898,376.768,330.515,374.85,327.526,374.789z" />
				<path style="fill:#3292CA;" d="M322.78,381.297c-1.586-0.033-3.02,0.467-4.027,1.285c0.725-0.284,1.568-0.442,2.469-0.423      c2.632,0.055,4.735,1.566,4.698,3.375c-0.038,1.809-2.202,3.232-4.833,3.177c-0.901-0.019-1.737-0.211-2.45-0.525      c0.972,0.859,2.384,1.418,3.97,1.45c2.988,0.062,5.449-1.755,5.497-4.058C328.152,383.276,325.768,381.359,322.78,381.297z" />
				<path style="fill:#3292CA;" d="M327.249,388.179c-1.586-0.033-3.02,0.467-4.027,1.285c0.725-0.284,1.568-0.442,2.469-0.423      c2.632,0.055,4.735,1.566,4.697,3.375c-0.038,1.809-2.201,3.232-4.833,3.177c-0.901-0.019-1.737-0.211-2.45-0.525      c0.972,0.859,2.384,1.417,3.97,1.45c2.988,0.062,5.449-1.755,5.497-4.058C332.621,390.158,330.237,388.241,327.249,388.179z" />
				<path style="fill:#3292CA;" d="M322.502,394.688c-1.586-0.033-3.02,0.467-4.027,1.285c0.725-0.284,1.568-0.442,2.469-0.423      c2.632,0.055,4.735,1.566,4.697,3.375c-0.037,1.809-2.201,3.232-4.833,3.177c-0.901-0.019-1.737-0.211-2.45-0.525      c0.972,0.859,2.384,1.418,3.97,1.45c2.988,0.062,5.449-1.755,5.497-4.058C327.874,396.667,325.491,394.75,322.502,394.688z" />
				<path style="fill:#3292CA;" d="M326.971,401.57c-1.586-0.033-3.02,0.467-4.027,1.285c0.725-0.284,1.568-0.442,2.469-0.423      c2.632,0.055,4.735,1.566,4.697,3.375c-0.038,1.809-2.201,3.232-4.833,3.177c-0.901-0.019-1.737-0.211-2.45-0.525      c0.972,0.859,2.384,1.418,3.97,1.45c2.988,0.062,5.449-1.755,5.497-4.058C332.344,403.549,329.96,401.632,326.971,401.57z" />
				<path style="fill:#3292CA;" d="M332.326,368.583c-1.487-0.031-2.831,0.438-3.775,1.204c0.68-0.266,1.47-0.414,2.315-0.396      c2.467,0.051,4.439,1.468,4.404,3.164c-0.035,1.696-2.064,3.03-4.531,2.979c-0.845-0.017-1.629-0.198-2.297-0.492      c0.911,0.805,2.235,1.329,3.722,1.36c2.801,0.058,5.109-1.645,5.153-3.804C337.362,370.438,335.127,368.641,332.326,368.583z" />
				<path style="fill:#3292CA;" d="M336.376,375.137c-1.504-0.031-2.863,0.443-3.817,1.218c0.687-0.269,1.487-0.419,2.341-0.401      c2.495,0.052,4.489,1.484,4.453,3.2c-0.036,1.715-2.087,3.064-4.582,3.012c-0.854-0.018-1.647-0.2-2.322-0.498      c0.922,0.814,2.26,1.344,3.764,1.375c2.833,0.059,5.166-1.664,5.211-3.847S339.209,375.196,336.376,375.137z" />
				<path style="fill:#3292CA;" d="M332.518,381.499c-1.586-0.033-3.02,0.467-4.027,1.285c0.725-0.284,1.568-0.442,2.469-0.423      c2.632,0.055,4.735,1.566,4.698,3.375c-0.038,1.809-2.201,3.232-4.833,3.177c-0.901-0.019-1.737-0.211-2.45-0.525      c0.972,0.859,2.384,1.417,3.97,1.45c2.988,0.062,5.449-1.755,5.497-4.058C337.891,383.478,335.507,381.561,332.518,381.499z" />
				<path style="fill:#3292CA;" d="M336.584,388.607c-1.504-0.031-2.863,0.443-3.817,1.218c0.687-0.269,1.487-0.419,2.341-0.401      c2.495,0.052,4.489,1.484,4.453,3.2c-0.036,1.715-2.087,3.064-4.582,3.012c-0.854-0.018-1.647-0.2-2.322-0.498      c0.922,0.814,2.26,1.344,3.764,1.375c2.833,0.059,5.166-1.663,5.211-3.847C341.677,390.483,339.417,388.666,336.584,388.607z" />
				<path style="fill:#3292CA;" d="M332.241,394.89c-1.586-0.033-3.02,0.467-4.027,1.285c0.725-0.284,1.568-0.442,2.469-0.423      c2.632,0.055,4.735,1.566,4.698,3.375c-0.038,1.809-2.201,3.232-4.833,3.177c-0.901-0.019-1.737-0.211-2.45-0.525      c0.972,0.859,2.384,1.417,3.97,1.45c2.988,0.062,5.449-1.755,5.497-4.058C337.613,396.869,335.229,394.952,332.241,394.89z" />
				<path style="fill:#3292CA;" d="M336.585,402.004c-1.504-0.031-2.863,0.443-3.817,1.218c0.687-0.269,1.487-0.419,2.341-0.401      c2.495,0.052,4.489,1.484,4.453,3.199c-0.036,1.715-2.087,3.064-4.582,3.012c-0.854-0.018-1.647-0.2-2.322-0.498      c0.922,0.814,2.26,1.344,3.764,1.375c2.833,0.059,5.166-1.664,5.211-3.847S339.418,402.063,336.585,402.004z" />
				<path style="fill:#3292CA;" d="M339.929,369.667c-1.375,0.242-2.527,0.917-3.257,1.794c0.577-0.368,1.278-0.648,2.059-0.785      c2.281-0.401,4.353,0.545,4.629,2.113c0.276,1.568-1.35,3.164-3.631,3.565c-0.781,0.137-1.535,0.113-2.204-0.036      c0.985,0.576,2.299,0.818,3.673,0.576c2.59-0.455,4.405-2.442,4.054-4.438S342.519,369.211,339.929,369.667z" />
				<path style="fill:#3292CA;" d="M343.999,375.713c-1.504-0.031-2.863,0.443-3.817,1.218c0.687-0.269,1.487-0.419,2.341-0.401      c2.495,0.052,4.489,1.484,4.453,3.199c-0.036,1.715-2.087,3.064-4.582,3.012c-0.854-0.018-1.647-0.2-2.322-0.498      c0.922,0.814,2.26,1.344,3.764,1.375c2.833,0.059,5.166-1.663,5.211-3.847C349.092,377.589,346.832,375.771,343.999,375.713z" />
				<path style="fill:#3292CA;" d="M339.355,382.089c-1.504-0.031-2.863,0.443-3.817,1.218c0.687-0.269,1.487-0.419,2.341-0.401      c2.495,0.052,4.489,1.484,4.453,3.199c-0.035,1.715-2.087,3.064-4.582,3.012c-0.854-0.018-1.647-0.2-2.322-0.498      c0.922,0.814,2.26,1.344,3.764,1.375c2.833,0.059,5.166-1.663,5.211-3.847C344.448,383.965,342.188,382.148,339.355,382.089z" />
				<path style="fill:#3292CA;" d="M343.31,388.816c-1.504-0.031-2.863,0.443-3.817,1.218c0.687-0.269,1.487-0.419,2.341-0.401      c2.495,0.052,4.489,1.484,4.453,3.2c-0.035,1.715-2.087,3.064-4.582,3.012c-0.854-0.018-1.647-0.2-2.322-0.498      c0.922,0.814,2.26,1.344,3.764,1.375c2.833,0.059,5.166-1.664,5.211-3.847C348.402,390.693,346.142,388.875,343.31,388.816z" />
				<path style="fill:#3292CA;" d="M339.497,395.419c-1.504-0.031-2.863,0.443-3.817,1.218c0.687-0.269,1.487-0.419,2.341-0.401      c2.495,0.052,4.489,1.484,4.453,3.2c-0.036,1.715-2.087,3.064-4.582,3.012c-0.854-0.018-1.647-0.2-2.322-0.498      c0.922,0.814,2.26,1.344,3.764,1.375c2.833,0.059,5.166-1.664,5.211-3.847C344.59,397.295,342.33,395.478,339.497,395.419z" />
				<path style="fill:#3292CA;" d="M350.163,376.284c-1.438-0.03-2.738,0.423-3.651,1.165c0.657-0.257,1.422-0.4,2.239-0.383      c2.386,0.049,4.293,1.419,4.259,3.06s-1.996,2.93-4.382,2.881c-0.817-0.017-1.575-0.191-2.221-0.476      c0.882,0.778,2.161,1.285,3.599,1.315c2.709,0.056,4.94-1.591,4.984-3.679C355.033,378.078,352.872,376.34,350.163,376.284z" />
				<path style="fill:#3292CA;" d="M346.34,382.552c-1.438-0.03-2.738,0.423-3.651,1.165c0.657-0.257,1.422-0.4,2.239-0.383      c2.386,0.049,4.293,1.419,4.259,3.06c-0.034,1.64-1.996,2.93-4.382,2.881c-0.817-0.017-1.575-0.191-2.221-0.476      c0.882,0.779,2.161,1.285,3.599,1.315c2.709,0.056,4.94-1.591,4.984-3.679C351.21,384.346,349.049,382.608,346.34,382.552z" />
				<path style="fill:#3292CA;" d="M349.485,388.833c-1.438-0.03-2.738,0.423-3.651,1.165c0.657-0.257,1.422-0.4,2.239-0.384      c2.386,0.049,4.293,1.419,4.259,3.06c-0.034,1.64-1.996,2.93-4.382,2.881c-0.817-0.017-1.575-0.191-2.221-0.476      c0.882,0.778,2.161,1.285,3.599,1.315c2.709,0.056,4.94-1.591,4.984-3.679C354.356,390.627,352.194,388.889,349.485,388.833z" />
				<path style="fill:#3292CA;" d="M346.352,395.394c-1.438-0.03-2.738,0.423-3.651,1.165c0.657-0.257,1.422-0.4,2.239-0.383      c2.386,0.049,4.293,1.419,4.259,3.06c-0.034,1.64-1.996,2.93-4.382,2.881c-0.817-0.017-1.575-0.191-2.221-0.476      c0.882,0.778,2.161,1.285,3.599,1.315c2.709,0.056,4.94-1.591,4.984-3.679S349.061,395.45,346.352,395.394z" />
			</g>
			<g>
				<path style="fill:#3292CA;" d="M357.176,376.642c-1.467-0.03-2.794,0.432-3.725,1.188c0.671-0.263,1.451-0.409,2.284-0.391      c2.435,0.05,4.38,1.448,4.346,3.122c-0.035,1.674-2.037,2.99-4.471,2.939c-0.834-0.017-1.607-0.195-2.266-0.486      c0.9,0.794,2.205,1.311,3.673,1.342c2.764,0.057,5.041-1.623,5.085-3.754C362.146,378.472,359.94,376.699,357.176,376.642z" />
				<path style="fill:#3292CA;" d="M352.785,382.663c-1.467-0.03-2.793,0.432-3.725,1.188c0.671-0.263,1.451-0.409,2.284-0.391      c2.435,0.05,4.38,1.448,4.346,3.122c-0.035,1.674-2.037,2.99-4.471,2.939c-0.834-0.017-1.607-0.195-2.266-0.486      c0.899,0.794,2.205,1.311,3.673,1.342c2.764,0.057,5.041-1.623,5.085-3.754C357.754,384.494,355.549,382.72,352.785,382.663z" />
				<path style="fill:#3292CA;" d="M356.919,389.029c-1.467-0.03-2.793,0.432-3.725,1.188c0.671-0.263,1.451-0.409,2.284-0.391      c2.435,0.05,4.38,1.448,4.346,3.122s-2.037,2.99-4.471,2.94c-0.834-0.017-1.607-0.195-2.266-0.486      c0.9,0.794,2.205,1.311,3.673,1.342c2.765,0.057,5.041-1.623,5.085-3.754C361.889,390.86,359.684,389.087,356.919,389.029z" />
				<path style="fill:#3292CA;" d="M352.528,395.051c-1.467-0.03-2.793,0.432-3.725,1.188c0.671-0.263,1.451-0.409,2.284-0.391      c2.435,0.05,4.38,1.448,4.346,3.122c-0.035,1.674-2.037,2.99-4.471,2.939c-0.834-0.017-1.607-0.195-2.266-0.486      c0.9,0.794,2.205,1.311,3.673,1.342c2.764,0.057,5.041-1.623,5.085-3.754C357.498,396.882,355.293,395.108,352.528,395.051z" />
				<path style="fill:#3292CA;" d="M361.794,382.85c-1.467-0.03-2.793,0.432-3.725,1.188c0.671-0.263,1.451-0.409,2.284-0.391      c2.435,0.05,4.38,1.448,4.346,3.122c-0.035,1.674-2.036,2.99-4.471,2.94c-0.834-0.017-1.607-0.195-2.266-0.486      c0.9,0.794,2.205,1.311,3.673,1.342c2.764,0.057,5.041-1.623,5.085-3.754C366.764,384.68,364.559,382.907,361.794,382.85z" />
				<path style="fill:#3292CA;" d="M365.555,389.426c-1.391-0.029-2.648,0.41-3.531,1.127c0.636-0.249,1.375-0.387,2.166-0.371      c2.308,0.048,4.153,1.373,4.12,2.96c-0.033,1.587-1.931,2.835-4.239,2.787c-0.79-0.016-1.524-0.185-2.148-0.46      c0.853,0.753,2.091,1.243,3.482,1.272c2.621,0.054,4.779-1.539,4.821-3.559C370.267,391.161,368.176,389.48,365.555,389.426z" />
				<path style="fill:#3292CA;" d="M361.537,395.237c-1.467-0.03-2.793,0.432-3.725,1.188c0.671-0.263,1.451-0.409,2.284-0.391      c2.435,0.05,4.38,1.448,4.346,3.122c-0.035,1.674-2.036,2.99-4.471,2.939c-0.834-0.017-1.607-0.195-2.266-0.486      c0.9,0.794,2.205,1.311,3.673,1.342c2.764,0.057,5.041-1.623,5.085-3.754C366.507,397.068,364.302,395.295,361.537,395.237z" />
				<path style="fill:#3292CA;" d="M368.119,383.395c-1.391-0.029-2.648,0.41-3.532,1.127c0.636-0.249,1.375-0.387,2.166-0.371      c2.308,0.048,4.153,1.373,4.12,2.96c-0.033,1.587-1.931,2.835-4.239,2.787c-0.79-0.016-1.524-0.185-2.148-0.46      c0.853,0.753,2.091,1.243,3.482,1.272c2.621,0.054,4.779-1.539,4.821-3.559C372.831,385.131,370.74,383.45,368.119,383.395z" />
				<path style="fill:#3292CA;" d="M371.777,389.619c-1.391-0.029-2.648,0.41-3.532,1.127c0.636-0.249,1.375-0.387,2.166-0.371      c2.308,0.048,4.153,1.373,4.12,2.96c-0.033,1.587-1.931,2.835-4.239,2.787c-0.79-0.016-1.523-0.185-2.148-0.46      c0.853,0.753,2.091,1.243,3.482,1.272c2.621,0.054,4.779-1.539,4.821-3.559C376.488,391.354,374.398,389.673,371.777,389.619z" />
			</g>
		</g>
		<g>
			<g>
				<path style="fill:#3292CA;" d="M306.714,367.911c-1.585,0.065-2.985,0.651-3.94,1.529c0.706-0.328,1.538-0.537,2.439-0.574      c2.63-0.107,4.822,1.272,4.895,3.08c0.074,1.808-1.999,3.361-4.629,3.468c-0.293,0.012-0.577-0.001-0.856-0.025      c-0.09,0.129-0.163,0.267-0.24,0.402c0.799,0.313,1.701,0.493,2.67,0.453c2.986-0.121,5.332-2.086,5.238-4.387      C312.198,369.557,309.701,367.789,306.714,367.911z" />
				<path style="fill:#3292CA;" d="M310.728,374.789c-1.586-0.033-3.02,0.467-4.027,1.285c0.725-0.284,1.568-0.442,2.469-0.423      c2.632,0.055,4.735,1.566,4.697,3.375c-0.037,1.809-2.201,3.232-4.833,3.178c-0.901-0.019-1.737-0.211-2.45-0.525      c0.972,0.859,2.384,1.417,3.97,1.45c2.988,0.062,5.449-1.755,5.497-4.058C316.1,376.768,313.716,374.85,310.728,374.789z" />
				<path style="fill:#3292CA;" d="M305.982,381.297c-1.586-0.033-3.02,0.467-4.027,1.285c0.725-0.284,1.568-0.442,2.469-0.423      c2.632,0.055,4.735,1.566,4.697,3.375c-0.038,1.809-2.201,3.232-4.833,3.177c-0.901-0.019-1.737-0.211-2.45-0.525      c0.972,0.859,2.384,1.418,3.97,1.45c2.988,0.062,5.449-1.755,5.497-4.058C311.354,383.276,308.97,381.359,305.982,381.297z" />
				<path style="fill:#3292CA;" d="M310.451,388.179c-1.586-0.033-3.02,0.467-4.027,1.285c0.725-0.284,1.568-0.442,2.469-0.423      c2.632,0.055,4.735,1.566,4.698,3.375c-0.038,1.809-2.201,3.232-4.833,3.177c-0.901-0.019-1.737-0.211-2.45-0.525      c0.972,0.859,2.384,1.417,3.97,1.45c2.988,0.062,5.449-1.755,5.497-4.058C315.823,390.158,313.439,388.241,310.451,388.179z" />
				<path style="fill:#3292CA;" d="M305.704,394.688c-1.586-0.033-3.02,0.467-4.027,1.285c0.725-0.284,1.568-0.442,2.469-0.423      c2.632,0.055,4.735,1.566,4.697,3.375c-0.037,1.809-2.201,3.232-4.833,3.177c-0.901-0.019-1.737-0.211-2.45-0.525      c0.972,0.859,2.384,1.418,3.97,1.45c2.988,0.062,5.449-1.755,5.497-4.058C311.076,396.667,308.692,394.75,305.704,394.688z" />
				<path style="fill:#3292CA;" d="M310.173,401.57c-1.586-0.033-3.02,0.467-4.027,1.285c0.725-0.284,1.568-0.442,2.469-0.423      c2.632,0.055,4.735,1.566,4.698,3.375c-0.038,1.809-2.201,3.232-4.833,3.177c-0.901-0.019-1.737-0.211-2.45-0.525      c0.972,0.859,2.384,1.418,3.97,1.45c2.988,0.062,5.449-1.755,5.497-4.058C315.545,403.549,313.161,401.632,310.173,401.57z" />
				<path style="fill:#3292CA;" d="M315.998,368.109c-1.586-0.033-3.02,0.467-4.027,1.285c0.725-0.284,1.568-0.442,2.469-0.423      c2.632,0.055,4.735,1.566,4.698,3.375c-0.038,1.809-2.201,3.232-4.833,3.177c-0.901-0.019-1.737-0.211-2.45-0.525      c0.972,0.859,2.384,1.417,3.97,1.45c2.988,0.062,5.449-1.755,5.497-4.058C321.37,370.088,318.986,368.171,315.998,368.109z" />
				<path style="fill:#3292CA;" d="M319.577,375.137c-1.504-0.031-2.863,0.443-3.817,1.218c0.687-0.269,1.487-0.419,2.341-0.401      c2.495,0.052,4.489,1.484,4.453,3.2c-0.035,1.715-2.087,3.064-4.582,3.012c-0.854-0.018-1.647-0.2-2.322-0.498      c0.922,0.814,2.26,1.344,3.764,1.375c2.833,0.059,5.166-1.664,5.211-3.847C324.67,377.013,322.41,375.196,319.577,375.137z" />
				<path style="fill:#3292CA;" d="M315.72,381.499c-1.586-0.033-3.02,0.467-4.027,1.285c0.725-0.284,1.568-0.442,2.469-0.423      c2.632,0.055,4.735,1.566,4.697,3.375c-0.038,1.809-2.201,3.232-4.833,3.177c-0.901-0.019-1.737-0.211-2.45-0.525      c0.972,0.859,2.384,1.417,3.97,1.45c2.988,0.062,5.449-1.755,5.497-4.058C321.092,383.478,318.708,381.561,315.72,381.499z" />
				<path style="fill:#3292CA;" d="M319.786,388.607c-1.504-0.031-2.863,0.443-3.817,1.218c0.687-0.269,1.487-0.419,2.341-0.401      c2.495,0.052,4.489,1.484,4.453,3.2c-0.035,1.715-2.087,3.064-4.582,3.012c-0.854-0.018-1.647-0.2-2.322-0.498      c0.922,0.814,2.26,1.344,3.764,1.375c2.833,0.059,5.166-1.663,5.211-3.847C324.879,390.483,322.619,388.666,319.786,388.607z" />
				<path style="fill:#3292CA;" d="M315.443,394.89c-1.586-0.033-3.02,0.467-4.027,1.285c0.725-0.284,1.568-0.442,2.469-0.423      c2.632,0.055,4.735,1.566,4.697,3.375c-0.038,1.809-2.201,3.232-4.833,3.177c-0.901-0.019-1.737-0.211-2.45-0.525      c0.972,0.859,2.384,1.417,3.97,1.45c2.988,0.062,5.449-1.755,5.497-4.058C320.815,396.869,318.431,394.952,315.443,394.89z" />
				<path style="fill:#3292CA;" d="M319.787,402.004c-1.504-0.031-2.863,0.443-3.817,1.218c0.687-0.269,1.487-0.419,2.341-0.401      c2.495,0.052,4.489,1.484,4.453,3.199c-0.035,1.715-2.087,3.064-4.582,3.012c-0.854-0.018-1.647-0.2-2.322-0.498      c0.922,0.814,2.26,1.344,3.764,1.375c2.833,0.059,5.166-1.664,5.211-3.847C324.879,403.88,322.62,402.063,319.787,402.004z" />
			</g>
		</g>
		<g>
			<g>
				<path style="fill:#3292CA;" d="M294.271,374.789c-1.586-0.033-3.02,0.467-4.027,1.285c0.725-0.284,1.568-0.442,2.469-0.423      c2.632,0.055,4.735,1.566,4.697,3.375c-0.038,1.809-2.201,3.232-4.833,3.178c-0.901-0.019-1.737-0.211-2.45-0.525      c0.972,0.859,2.384,1.417,3.97,1.45c2.988,0.062,5.449-1.755,5.497-4.058C299.643,376.768,297.259,374.85,294.271,374.789z" />
				<path style="fill:#3292CA;" d="M289.525,381.297c-1.586-0.033-3.02,0.467-4.027,1.285c0.725-0.284,1.568-0.442,2.469-0.423      c2.632,0.055,4.735,1.566,4.698,3.375c-0.038,1.809-2.201,3.232-4.833,3.177c-0.901-0.019-1.737-0.211-2.45-0.525      c0.972,0.859,2.384,1.418,3.97,1.45c2.988,0.062,5.449-1.755,5.497-4.058C294.897,383.276,292.513,381.359,289.525,381.297z" />
				<path style="fill:#3292CA;" d="M293.994,388.179c-1.586-0.033-3.02,0.467-4.027,1.285c0.725-0.284,1.568-0.442,2.469-0.423      c2.632,0.055,4.735,1.566,4.697,3.375c-0.038,1.809-2.201,3.232-4.833,3.177c-0.901-0.019-1.737-0.211-2.45-0.525      c0.972,0.859,2.384,1.417,3.97,1.45c2.988,0.062,5.449-1.755,5.497-4.058C299.366,390.158,296.982,388.241,293.994,388.179z" />
				<path style="fill:#3292CA;" d="M289.247,394.688c-1.586-0.033-3.02,0.467-4.027,1.285c0.725-0.284,1.568-0.442,2.469-0.423      c2.632,0.055,4.735,1.566,4.698,3.375c-0.038,1.809-2.201,3.232-4.833,3.177c-0.901-0.019-1.737-0.211-2.45-0.525      c0.972,0.859,2.384,1.418,3.97,1.45c2.988,0.062,5.449-1.755,5.497-4.058C294.619,396.667,292.235,394.75,289.247,394.688z" />
				<path style="fill:#3292CA;" d="M303.12,375.137c-1.504-0.031-2.863,0.443-3.817,1.218c0.687-0.269,1.487-0.419,2.341-0.401      c2.495,0.052,4.489,1.484,4.453,3.2c-0.036,1.715-2.087,3.064-4.582,3.012c-0.854-0.018-1.647-0.2-2.322-0.498      c0.922,0.814,2.26,1.344,3.764,1.375c2.833,0.059,5.166-1.664,5.211-3.847C308.213,377.013,305.953,375.196,303.12,375.137z" />
				<path style="fill:#3292CA;" d="M299.263,381.499c-1.586-0.033-3.02,0.467-4.027,1.285c0.725-0.284,1.568-0.442,2.469-0.423      c2.632,0.055,4.735,1.566,4.697,3.375c-0.037,1.809-2.201,3.232-4.833,3.177c-0.901-0.019-1.737-0.211-2.45-0.525      c0.972,0.859,2.384,1.417,3.97,1.45c2.988,0.062,5.449-1.755,5.497-4.058C304.635,383.478,302.251,381.561,299.263,381.499z" />
				<path style="fill:#3292CA;" d="M303.329,388.607c-1.504-0.031-2.863,0.443-3.817,1.218c0.687-0.269,1.487-0.419,2.341-0.401      c2.495,0.052,4.489,1.484,4.453,3.2c-0.036,1.715-2.087,3.064-4.582,3.012c-0.854-0.018-1.647-0.2-2.322-0.498      c0.922,0.814,2.26,1.344,3.764,1.375c2.833,0.059,5.166-1.663,5.211-3.847C308.422,390.483,306.162,388.666,303.329,388.607z" />
				<path style="fill:#3292CA;" d="M298.986,394.89c-1.586-0.033-3.02,0.467-4.027,1.285c0.725-0.284,1.568-0.442,2.469-0.423      c2.632,0.055,4.735,1.566,4.697,3.375c-0.038,1.809-2.201,3.232-4.833,3.177c-0.901-0.019-1.737-0.211-2.45-0.525      c0.972,0.859,2.384,1.417,3.97,1.45c2.988,0.062,5.449-1.755,5.497-4.058C304.358,396.869,301.974,394.952,298.986,394.89z" />
				<path style="fill:#3292CA;" d="M303.33,402.004c-1.504-0.031-2.863,0.443-3.817,1.218c0.687-0.269,1.487-0.419,2.341-0.401      c2.495,0.052,4.489,1.484,4.453,3.199c-0.036,1.715-2.087,3.064-4.582,3.012c-0.854-0.018-1.647-0.2-2.322-0.498      c0.922,0.814,2.26,1.344,3.764,1.375c2.833,0.059,5.166-1.664,5.211-3.847C308.423,403.88,306.163,402.063,303.33,402.004z" />
			</g>
		</g>
	</g>
	<g>
		<path style="fill:#D2EAF7;" d="M286.143,395.698l1.432,1.796c9.112,1.923,27.985,1.083,29.978-2.851    c1.993-3.934-2.67-7.23-1.571-8.785c0.735-2.206-2.439-3.302-3.455-3.59C312.148,377.159,299.202,385.1,286.143,395.698z" />
		<path style="fill:#A9CAD8;" d="M311.365,383.206c-0.194,0.032-6.648,1.726-20.925,10.926c-0.861,0.555-2.829,2.008-3.001,1.904    c-0.231-0.139,1.36-1.403,2.439-2.081C290.753,393.405,303.474,384.496,311.365,383.206z" />
		<path style="fill:#A9CAD8;" d="M314.422,387.352c0.569-0.009-7.285,0.827-23.256,7.726c-0.985,0.425-3.283,1.585-3.424,1.452    c-0.189-0.179,1.692-1.208,2.921-1.724C291.872,394.299,306.666,387.479,314.422,387.352z" />
		<path style="fill:#A9CAD8;" d="M315.214,393.333c-0.046-0.009-7.076-0.602-23.708,3.075c-1.02,0.225-3.427,0.913-3.542,0.757    c-0.153-0.21,2.095-0.907,3.366-1.173C292.36,395.776,307.68,391.846,315.214,393.333z" />
	</g>
</g>
</svg>
