<?xml version="1.0" encoding="utf-8"?>
<svg xmlns="http://www.w3.org/2000/svg" xmlns:xlink="http://www.w3.org/1999/xlink" viewBox="-82 -44 532 165" xml:space="preserve">
<g xmlns="http://www.w3.org/2000/svg">
	<g>
		<g>
			<path style="fill:#FF8100;" d="M389.138,68.891l-24.007,16.714C386.158,102.369,412.258,79.6,389.138,68.891z" />
			<path style="fill:#FF8100;" d="M369.393,94.129c0.159-5.498-12.645-5.257-13.923-5.399c-1.279-0.142-16.765-1.563-16.765-1.563     C344.104,97.539,369.192,101.086,369.393,94.129z" />
			<path style="fill:#EA6F00;" d="M390.488,69.56c-0.43-0.228-0.879-0.451-1.35-0.67l-24.007,16.714     c1.646,1.313,3.323,2.381,5.006,3.232c1.535,0.777,8.809-1.849,14.374-7.697C390.077,75.291,390.846,69.75,390.488,69.56z" />
			<path style="fill:#EA6F00;" d="M366.407,90.441c-3.821-1.692-10.064-1.614-10.937-1.711c-1.279-0.142-16.765-1.563-16.765-1.563     c0.693,1.331,1.711,2.55,2.959,3.648C343.07,92.053,360.166,95.173,366.407,90.441z" />
			<path style="fill:#FF8100;" d="M394.398,36.589C383.6,44.545,366.835,35.31,356.89,34.6c-9.945-0.71-15.202,3.836-19.038,10.371     l47.879,14.918C394.398,57.9,397.523,41.846,394.398,36.589z" />
			<path style="fill:#EA6F00;" d="M391.591,55.591c-16.337-9.076-36.549-18.806-51.119-14.422c-0.955,1.161-1.819,2.438-2.62,3.802     l47.879,14.918C388.107,59.344,390.063,57.738,391.591,55.591z" />
			<path style="fill:#FFB440;" d="M416.277,48.949c-13.639-6.251-19.89,11.65-24.437,9.093     c-20.832-11.718-48.946-25.638-63.272-9.053c-5.735,6.639-10.15,16.609-10.563,21.716c-0.039,0.477,0.796,0.413,0.983,1.642     c0,0-3.166,1.551-0.755,4.323c2.395,2.754,11.094,14.901,36.099,14.901c25.857,0,34.54-19.696,38.076-25.858     c2.916-5.081,3.41,8.525,19.038,15.912C430.769,74.523,411.162,61.168,416.277,48.949z" />
			<path style="fill:#FE9B00;" d="M392.835,61.31c-11.508,12.929-26.432,26.441-47.959,21.058c0,0,6.111-11.283-2.202-21.246     c8.123,19.429-11.854,21.879-17.68,22.146c5.449,4.046,14.535,8.304,29.34,8.304c25.857,0,34.54-19.696,38.076-25.858     c2.916-5.081,3.41,8.525,19.038,15.912c12.787-4.262,8.811-11.651,6.937-16.73C407.668,66.416,393.183,61.079,392.835,61.31z" />
			<g>
				<path style="fill:#FE9B00;" d="M351.551,46.575c-1.481,0-2.809,0.494-3.733,1.277c0.671-0.279,1.455-0.443,2.296-0.443      c2.457,0,4.449,1.37,4.449,3.059s-1.992,3.059-4.449,3.059c-0.841,0-1.625-0.164-2.296-0.443      c0.924,0.783,2.252,1.277,3.733,1.277c2.79,0,5.052-1.743,5.052-3.893C356.603,48.318,354.341,46.575,351.551,46.575z" />
				<path style="fill:#FE9B00;" d="M355.855,52.911c-1.481,0-2.809,0.494-3.733,1.277c0.671-0.279,1.455-0.443,2.296-0.443      c2.457,0,4.449,1.369,4.449,3.059s-1.992,3.059-4.449,3.059c-0.841,0-1.625-0.164-2.296-0.443      c0.924,0.783,2.252,1.277,3.733,1.277c2.79,0,5.052-1.743,5.052-3.893C360.907,54.654,358.645,52.911,355.855,52.911z" />
				<path style="fill:#FE9B00;" d="M351.551,59.077c-1.481,0-2.809,0.494-3.733,1.277c0.671-0.279,1.455-0.442,2.296-0.442      c2.457,0,4.449,1.369,4.449,3.059c0,1.689-1.992,3.059-4.449,3.059c-0.841,0-1.625-0.164-2.296-0.443      c0.924,0.783,2.252,1.277,3.733,1.277c2.79,0,5.052-1.743,5.052-3.893C356.603,60.82,354.341,59.077,351.551,59.077z" />
				<path style="fill:#FE9B00;" d="M355.855,65.414c-1.481,0-2.809,0.494-3.733,1.277c0.671-0.279,1.455-0.442,2.296-0.442      c2.457,0,4.449,1.369,4.449,3.059s-1.992,3.059-4.449,3.059c-0.841,0-1.625-0.164-2.296-0.443      c0.924,0.783,2.252,1.277,3.733,1.277c2.79,0,5.052-1.743,5.052-3.893S358.645,65.414,355.855,65.414z" />
				<path style="fill:#FE9B00;" d="M351.551,71.58c-1.481,0-2.809,0.494-3.733,1.277c0.671-0.279,1.455-0.442,2.296-0.442      c2.457,0,4.449,1.369,4.449,3.059s-1.992,3.059-4.449,3.059c-0.841,0-1.625-0.164-2.296-0.443      c0.924,0.783,2.252,1.277,3.733,1.277c2.79,0,5.052-1.743,5.052-3.893S354.341,71.58,351.551,71.58z" />
				<path style="fill:#FE9B00;" d="M355.855,77.916c-1.481,0-2.809,0.494-3.733,1.277c0.671-0.279,1.455-0.443,2.296-0.443      c2.457,0,4.449,1.37,4.449,3.059s-1.992,3.059-4.449,3.059c-0.841,0-1.625-0.164-2.296-0.443      c0.924,0.783,2.252,1.277,3.733,1.277c2.79,0,5.052-1.743,5.052-3.893C360.907,79.659,358.645,77.916,355.855,77.916z" />
				<path style="fill:#FE9B00;" d="M360.644,46.575c-1.481,0-2.809,0.494-3.733,1.277c0.671-0.279,1.455-0.443,2.296-0.443      c2.457,0,4.449,1.37,4.449,3.059s-1.992,3.059-4.449,3.059c-0.842,0-1.625-0.164-2.296-0.443      c0.924,0.783,2.252,1.277,3.733,1.277c2.79,0,5.052-1.743,5.052-3.893C365.696,48.318,363.434,46.575,360.644,46.575z" />
				<path style="fill:#FE9B00;" d="M364.121,53.065c-1.404,0-2.663,0.468-3.539,1.21c0.636-0.264,1.379-0.42,2.177-0.42      c2.33,0,4.218,1.298,4.218,2.9c0,1.602-1.889,2.9-4.218,2.9c-0.798,0-1.541-0.155-2.177-0.419      c0.876,0.742,2.135,1.21,3.539,1.21c2.645,0,4.789-1.652,4.789-3.691C368.91,54.717,366.766,53.065,364.121,53.065z" />
				<path style="fill:#FE9B00;" d="M360.644,59.077c-1.481,0-2.809,0.494-3.733,1.277c0.671-0.279,1.455-0.442,2.296-0.442      c2.457,0,4.449,1.369,4.449,3.059c0,1.689-1.992,3.059-4.449,3.059c-0.842,0-1.625-0.164-2.296-0.443      c0.924,0.783,2.252,1.277,3.733,1.277c2.79,0,5.052-1.743,5.052-3.893C365.696,60.82,363.434,59.077,360.644,59.077z" />
				<path style="fill:#FE9B00;" d="M364.576,65.633c-1.404,0-2.663,0.469-3.539,1.21c0.636-0.265,1.379-0.42,2.177-0.42      c2.329,0,4.218,1.298,4.218,2.9s-1.889,2.9-4.218,2.9c-0.798,0-1.541-0.155-2.177-0.42c0.876,0.742,2.135,1.21,3.539,1.21      c2.645,0,4.789-1.652,4.789-3.691S367.221,65.633,364.576,65.633z" />
				<path style="fill:#FE9B00;" d="M360.644,71.58c-1.481,0-2.809,0.494-3.733,1.277c0.671-0.279,1.455-0.442,2.296-0.442      c2.457,0,4.449,1.369,4.449,3.059s-1.992,3.059-4.449,3.059c-0.842,0-1.625-0.164-2.296-0.443      c0.924,0.783,2.252,1.277,3.733,1.277c2.79,0,5.052-1.743,5.052-3.893S363.434,71.58,360.644,71.58z" />
				<path style="fill:#FE9B00;" d="M364.836,78.135c-1.404,0-2.663,0.468-3.539,1.21c0.636-0.265,1.379-0.42,2.177-0.42      c2.33,0,4.218,1.298,4.218,2.9s-1.888,2.9-4.218,2.9c-0.798,0-1.541-0.155-2.177-0.42c0.876,0.742,2.135,1.21,3.539,1.21      c2.645,0,4.789-1.652,4.789-3.691S367.481,78.135,364.836,78.135z" />
				<path style="fill:#FE9B00;" d="M367.881,47.448c-1.404,0-2.663,0.469-3.539,1.21c0.636-0.264,1.379-0.42,2.177-0.42      c2.33,0,4.218,1.298,4.218,2.9c0,1.602-1.889,2.9-4.218,2.9c-0.798,0-1.541-0.155-2.177-0.419      c0.876,0.742,2.135,1.21,3.539,1.21c2.645,0,4.789-1.653,4.789-3.691C372.67,49.1,370.526,47.448,367.881,47.448z" />
				<path style="fill:#FE9B00;" d="M371.246,53.455c-1.404,0-2.663,0.468-3.539,1.21c0.636-0.264,1.379-0.42,2.177-0.42      c2.329,0,4.218,1.298,4.218,2.9c0,1.602-1.889,2.9-4.218,2.9c-0.798,0-1.541-0.155-2.177-0.419      c0.876,0.742,2.135,1.21,3.539,1.21c2.645,0,4.789-1.652,4.789-3.691C376.036,55.107,373.891,53.455,371.246,53.455z" />
				<path style="fill:#FE9B00;" d="M367.036,59.496c-1.404,0-2.663,0.468-3.539,1.21c0.636-0.264,1.379-0.419,2.177-0.419      c2.33,0,4.218,1.298,4.218,2.9s-1.888,2.9-4.218,2.9c-0.798,0-1.541-0.155-2.177-0.42c0.876,0.742,2.135,1.211,3.539,1.211      c2.645,0,4.789-1.653,4.789-3.691S369.681,59.496,367.036,59.496z" />
				<path style="fill:#FE9B00;" d="M370.856,65.698c-1.404,0-2.663,0.468-3.539,1.21c0.636-0.264,1.379-0.419,2.177-0.419      c2.33,0,4.218,1.298,4.218,2.9c0,1.602-1.888,2.9-4.218,2.9c-0.798,0-1.541-0.155-2.177-0.42      c0.876,0.742,2.135,1.211,3.539,1.211c2.645,0,4.789-1.652,4.789-3.691C375.646,67.35,373.502,65.698,370.856,65.698z" />
				<path style="fill:#FE9B00;" d="M367.426,71.934c-1.404,0-2.663,0.468-3.539,1.21c0.636-0.264,1.379-0.419,2.177-0.419      c2.33,0,4.218,1.298,4.218,2.9s-1.889,2.9-4.218,2.9c-0.798,0-1.541-0.155-2.177-0.42c0.876,0.742,2.135,1.21,3.539,1.21      c2.645,0,4.789-1.652,4.789-3.691S370.071,71.934,367.426,71.934z" />
				<path style="fill:#FE9B00;" d="M377.01,53.869c-1.343,0-2.547,0.448-3.384,1.158c0.608-0.253,1.319-0.401,2.082-0.401      c2.228,0,4.034,1.242,4.034,2.773s-1.806,2.773-4.034,2.773c-0.763,0-1.473-0.148-2.082-0.401      c0.838,0.709,2.042,1.157,3.384,1.157c2.53,0,4.58-1.58,4.58-3.529S379.54,53.869,377.01,53.869z" />
				<path style="fill:#FE9B00;" d="M373.563,59.793c-1.343,0-2.547,0.448-3.384,1.158c0.608-0.253,1.319-0.401,2.082-0.401      c2.228,0,4.034,1.242,4.034,2.773c0,1.532-1.806,2.773-4.034,2.773c-0.763,0-1.474-0.148-2.082-0.401      c0.838,0.709,2.042,1.158,3.384,1.158c2.53,0,4.58-1.58,4.58-3.53C378.143,61.373,376.093,59.793,373.563,59.793z" />
				<path style="fill:#FE9B00;" d="M376.621,65.593c-1.343,0-2.547,0.448-3.385,1.158c0.608-0.253,1.319-0.401,2.082-0.401      c2.228,0,4.034,1.242,4.034,2.773s-1.806,2.773-4.034,2.773c-0.763,0-1.474-0.148-2.082-0.401      c0.838,0.709,2.042,1.158,3.385,1.158c2.529,0,4.58-1.58,4.58-3.53C381.201,67.174,379.15,65.593,376.621,65.593z" />
				<path style="fill:#FE9B00;" d="M373.823,71.777c-1.343,0-2.547,0.448-3.384,1.158c0.608-0.253,1.319-0.401,2.082-0.401      c2.228,0,4.034,1.242,4.034,2.773s-1.806,2.773-4.034,2.773c-0.763,0-1.474-0.148-2.082-0.401      c0.838,0.709,2.042,1.158,3.384,1.158c2.529,0,4.58-1.58,4.58-3.53C378.403,73.357,376.353,71.777,373.823,71.777z" />
			</g>
			<path style="fill:#FF8100;" d="M347.842,76.173l1.51,4.613c9.455,6.373,15.544,5.1,17.945-7.602     C368.809,65.186,363.68,66.631,347.842,76.173z" />
			<path style="fill:#FE9B00;" d="M324.002,72.756c-1.031-1.048-4.376-2.111-5.996-2.051c-0.039,0.477,0.796,0.413,0.983,1.642     C318.989,72.347,320.271,71.504,324.002,72.756z" />
			<g>
				<circle style="fill:#FE9B00;" cx="330.27" cy="62.729" r="4.078" />
				<circle style="fill:#FFFFFF;" cx="330.27" cy="62.729" r="3.58" />
				<path style="fill:#2D3739;" d="M331.342,62.5c0,1.171-0.95,2.121-2.121,2.121c-1.171,0-2.121-0.949-2.121-2.121      c0-1.171,0.949-2.121,2.121-2.121C330.393,60.379,331.342,61.328,331.342,62.5z" />
				<path style="fill:#1E2526;" d="M329.451,62.05c0,0.549-0.445,0.994-0.994,0.994c-0.549,0-0.994-0.445-0.994-0.994      c0-0.549,0.445-0.994,0.994-0.994C329.005,61.056,329.451,61.501,329.451,62.05z" />
				<path style="fill:#FFFFFF;" d="M330.922,61.758c0,0.351-0.285,0.636-0.636,0.636c-0.351,0-0.636-0.285-0.636-0.636      c0-0.351,0.285-0.636,0.636-0.636C330.637,61.122,330.922,61.407,330.922,61.758z" />
				<path style="fill:#FFFFFF;" d="M330.511,62.819c0,0.227-0.184,0.411-0.411,0.411c-0.227,0-0.411-0.184-0.411-0.411      c0-0.227,0.184-0.411,0.411-0.411C330.327,62.408,330.511,62.592,330.511,62.819z" />
			</g>
			<path style="fill:#EA6F00;" d="M367.472,69.951c-0.053,6.457-5.302,11.675-11.772,11.675c-2.524,0-4.86-0.797-6.777-2.148     l0.428,1.308c9.455,6.373,15.544,5.1,17.945-7.602C367.551,71.84,367.613,70.768,367.472,69.951z" />
		</g>
		<g>
			<path style="fill:#EA6F00;" d="M342.674,61.122c0.72,1.364,1.24,2.862,1.497,4.47c1.215,7.601-3.721,14.748-11.127,16.416     c0.409-0.026,0.819-0.068,1.231-0.134c7.133-1.14,11.992-7.847,10.852-14.98C344.779,64.721,343.909,62.766,342.674,61.122z" />
		</g>
	</g>
	<path style="fill:#FF8100;" d="M416.277,48.949c-6.741-3.089-11.675-0.279-15.492,3.045c8.949-5.238,14.027-2.295,13.045,0.433   c-0.708,1.966,0.057,8.289,0.938,10.531c2.753,7,4.729,8.781,2.321,11.676c-5.467,6.571-14.251,1.197-20.428-6.406   c2.384,3.698,6.411,9.439,14.786,13.398C432.543,74.913,411.162,61.168,416.277,48.949z" />
</g>
</svg>
