<?xml version="1.0" encoding="utf-8"?>
<svg xmlns="http://www.w3.org/2000/svg" xmlns:xlink="http://www.w3.org/1999/xlink" viewBox="-67 -42 502 379" xml:space="preserve">
<g xmlns="http://www.w3.org/2000/svg">
	<g>
		<path style="fill:#4665AA;" d="M313.827,297.009l75.64-16.977c0,0,8.965,2.923,2.156,6.613    C380.16,292.855,348.668,319.313,313.827,297.009z" />
		<path style="fill:#2C4D89;" d="M346.392,289.7l-32.564,7.309c2.762,1.768,5.502,3.227,8.213,4.417    c7.125,2.447,16.012,3.371,26.938,1.196c22.018-4.383,32.632-19.089,44.14-20.648c-1.388-1.203-3.651-1.941-3.651-1.941    l-11.019,2.473c-5.282,1.777-10.578,3.667-16.154,4.822C357.06,288.411,351.74,289.335,346.392,289.7z" />
		<path style="fill:#272F42;" d="M313.827,297.009c0,0,21.479,15.938,52.262,1.84c7.392-3.385,18.625-9.054,25.61-14.874    c1.869-1.558-2.232-3.943-2.232-3.943s8.965,2.923,2.156,6.613C380.16,292.855,348.668,319.313,313.827,297.009z" />
	</g>
	<path style="fill:#4665AA;" d="M312.945,256.45l77.172,17.806c0,0,5.381-0.83,5.443-4.21   C395.617,266.882,350.273,236.26,312.945,256.45z" />
	<path style="fill:#2C4D89;" d="M390.117,274.255c0,0,2.899-0.449,4.466-2.025c-10.484-0.583-16.439-12.84-44.437-19.817   c-7.544-1.88-14.116-2.401-19.843-1.912c-5.846,0.997-11.694,2.885-17.358,5.948L390.117,274.255z" />
	<g>
		<path style="fill:#6B83D6;" d="M348.364,253.709c-13.995-3.488-24.674-2.332-32.739,1.366    c-9.697,4.447-15.613,12.571-18.967,20.721c-0.306,0.745-0.186,1.436,0.243,1.533l0.778,0.177c0,0-0.338,0.159-0.778,0.177    c-1.709,0.07,0.664,2.439,1.045,3.148c4.18,7.776,18.795,26.879,50.06,20.656c25.261-5.029,35.511-23.649,49.324-20.408    c8.021,1.882,13.572,5.457,16.816,8.125c2.073,1.705,2.911,1.279,2.303-1.336c-0.698-2.997-1.515-6.932-1.884-10.29    c0.369-3.358,1.186-7.292,1.884-10.29c0.608-2.614-0.336-3.137-2.509-1.561c-3.271,2.373-8.757,5.52-16.611,7.363    C383.517,276.333,380.12,261.623,348.364,253.709z" />
		<path style="fill:#272F42;" d="M416.45,287.869c-0.698-2.997-1.515-6.932-1.884-10.29c0.369-3.358,1.186-7.292,1.884-10.29    c0.609-2.614-0.336-3.137-2.508-1.561c-3.271,2.373-8.759,5.509-16.611,7.363c-12.549,2.963-16.943-11.542-48.699-19.456    c-6.7-1.669-12.992-2.943-18.163-1.973c-11.965,2.244-22.739,11.928-25.636,20.666c16.447-18.074,52.859-6.95,54.189-3.531    c2.424,6.233-33.425,11.473-34.799-3.809c-2.251,13.504,10.932,21.16,40.513,17.659c8.35-0.988,29.128-3.489,32.529-3.329    c9.214,0.435,13.807,7.354,16.884,9.885C416.22,290.909,417.058,290.483,416.45,287.869z" />
		<path style="fill:#5570BC;" d="M414.793,279.329c-4.103,0.729-8.744,0.164-13.034-0.007c-13.91-0.554-26.992,4.086-40.436,6.87    c-6.621,1.371-13.379,2.5-20.158,2.546c-3.883,0.026-19.136-0.844-18.733-4.27c0.967-8.221-2.673-12.54-3.789-13.841    c6.207,9.308-3.102,23.03-15.995,17.022c7.195,8.486,21.379,18.611,45.358,13.838c25.261-5.029,35.511-23.649,49.324-20.408    c8.021,1.882,13.572,5.458,16.816,8.125c2.073,1.705,2.911,1.279,2.303-1.336C415.87,285.379,415.212,282.245,414.793,279.329z" />
		<g>
			<path style="fill:#272F42;" d="M311.645,267.99c0,1.826-1.48,3.307-3.307,3.307c-1.826,0-3.307-1.48-3.307-3.307     c0-1.826,1.48-3.307,3.307-3.307C310.164,264.683,311.645,266.164,311.645,267.99z" />
			<path style="fill:#FFFFFF;" d="M311.241,267.99c0,1.603-1.3,2.903-2.903,2.903c-1.603,0-2.903-1.3-2.903-2.903     c0-1.603,1.3-2.903,2.903-2.903C309.942,265.086,311.241,266.386,311.241,267.99z" />
			<path style="fill:#2D3739;" d="M309.208,267.804c0,0.95-0.77,1.72-1.72,1.72c-0.95,0-1.72-0.77-1.72-1.72s0.77-1.72,1.72-1.72     C308.438,266.084,309.208,266.854,309.208,267.804z" />
			<path style="fill:#1E2526;" d="M307.674,267.439c0,0.445-0.361,0.806-0.806,0.806c-0.445,0-0.806-0.361-0.806-0.806     s0.361-0.806,0.806-0.806C307.313,266.633,307.674,266.994,307.674,267.439z" />
			<path style="fill:#FFFFFF;" d="M308.867,267.203c0,0.285-0.231,0.516-0.516,0.516c-0.285,0-0.516-0.231-0.516-0.516     c0-0.285,0.231-0.516,0.516-0.516C308.636,266.687,308.867,266.918,308.867,267.203z" />
			<circle style="fill:#FFFFFF;" cx="308.2" cy="268.062" r="0.333" />
		</g>
		<path style="fill:#272F42;" d="M318.146,269.936c0.973,1.357,1.681,2.937,2.026,4.682c1.292,6.534-2.958,12.879-9.493,14.171    c-0.959,0.19-1.914,0.257-2.849,0.218c1.418,0.284,2.914,0.301,4.421,0.003c6.146-1.215,10.143-7.182,8.929-13.328    C320.734,273.426,319.646,271.461,318.146,269.936z" />
		<path style="fill:#FDFE00;" d="M416.45,287.869c-0.698-2.997-1.515-6.932-1.884-10.29c0.369-3.358,1.186-7.292,1.884-10.29    c0.465-1.996-4.015,2.216-18.204,7.792c-3.856,1.515-6.113,3.12-0.372,4.45C409.959,282.332,417.058,290.483,416.45,287.869z" />
		<path style="fill:#F2DF2F;" d="M416.45,287.869c-0.698-2.997-1.515-6.932-1.884-10.29c0.138,5.773-2.886,1.514-16.691,1.952    C409.959,282.332,417.058,290.483,416.45,287.869z" />
		<path style="fill:#EAD82F;" d="M398.835,276.177c0,0,15.269-7.169,15.917-7.493S416.777,270.021,398.835,276.177z" />
		<path style="fill:#EAD82F;" d="M396.232,277.174c0,0,17.033-4.512,17.756-4.723C414.711,272.239,416.247,274.139,396.232,277.174z    " />
		<path style="fill:#EAD82F;" d="M398.491,277.374c0,0,15.245-1.7,15.292-0.792C413.815,277.209,409.305,277.75,398.491,277.374z" />
		<path style="fill:#EAD82F;" d="M396.479,277.85c0,0,16.565,2.376,17.268,2.497S415.944,278.375,396.479,277.85z" />
		<path style="fill:#EAD82F;" d="M398.557,278.625c0,0,15.236,6.231,15.882,6.515C415.086,285.425,416.46,283.68,398.557,278.625z" />
	</g>
	<path style="fill:#5570BC;" d="M321.917,284.488l1.033,1.565c0,0,8.38,0.834,10.7-0.503c3.19-1.839,8.899-8.742,10.418-14.07   C340.787,272.256,328.301,278.182,321.917,284.488z" />
	<path style="fill:#4665AA;" d="M322.447,283.98c3.462-2.14,11.016-3.578,9.659-1.266c-0.998,1.701-4.132,2.94-7.959,3.438   c2.4,0.173,7.726,0.422,9.503-0.602c3.19-1.839,8.899-8.742,10.418-14.07C340.875,272.235,328.969,277.867,322.447,283.98z" />
	<path style="fill:#2C4D89;" d="M322.447,283.98c3.621-3.332,13.424-7.867,13.95-5.239c0.318,1.589-1.112,7.549-12.25,7.411   c2.4,0.173,7.726,0.422,9.503-0.602c3.19-1.839,8.899-8.742,10.418-14.07C340.875,272.235,328.969,277.867,322.447,283.98z" />
	<path style="fill:#272F42;" d="M312.945,256.45c0,0,10.063-5.024,21.548-5.984c14.41-1.204,34.832,1.616,56.506,17.366   c5.484,3.985-0.882,6.423-0.882,6.423s5.381-0.83,5.443-4.21C395.617,266.882,350.273,236.26,312.945,256.45z" />
</g>
</svg>
