<?xml version="1.0" encoding="utf-8"?>
<svg xmlns="http://www.w3.org/2000/svg" xmlns:xlink="http://www.w3.org/1999/xlink" viewBox="-84 -49 524 273" xml:space="preserve">
<g xmlns="http://www.w3.org/2000/svg">
	<g>
		<g>
			<path style="fill:#CC2600;" d="M330.65,187.443c-2.065,2.434,3.496,9.748,3.496,9.748s12.183,10.44,21.283,11.082     C350.289,195.797,335.054,196.976,330.65,187.443z" />
			<path style="fill:#FF4400;" d="M364.342,120.516c-18.734-4.441-30.051,15.122-36.955,19.778l57.455,26.056     c15-1,25.59-14.434,26.5-26C402.342,147.349,386.842,125.849,364.342,120.516z" />
			<path style="fill:#FF4400;" d="M371.509,206.349c-15.333,2.333-20.667-8-36.859-11.85l43.192-30.484     c13.998,1.029,24.977,14.266,27,25.333C391.176,191.349,390.614,203.442,371.509,206.349z" />
			<path style="fill:#CC2600;" d="M405.358,154.979c-2.692,2.134-5.376,4.05-7.821,3.953c-5.473-0.216-30.823-28.492-63.77-24.656     c-2.463,2.561-4.573,4.801-6.379,6.018l57.455,26.056C393.481,165.773,400.651,161.071,405.358,154.979z" />
			<path style="fill:#CC2600;" d="M399.294,177.011c-1.563-2.151-3.396-4.176-5.456-5.962c-5.964,0.897-14.71,3.652-25.061,7.179     c-4.66,1.588-10.171,2.788-15.915,3.419L334.65,194.5c3.72,0.884,6.863,2.112,9.689,3.449     c30.548,2.044,46.231-22.829,51.334-22.628C396.237,175.343,399.294,177.011,399.294,177.011z" />
			<path style="fill:#FF7340;" d="M414.049,151.016c-5.319-0.498-12.117,9.69-17.678,9.47c-5.561-0.22-31.639-29.435-65.362-24.47     c-12.959,1.908-15.589,13.018-19,20c-1.797,3.679-2.667,5.167-4.64,6.207c-1.913,1.008,1.253,1.486,1.253,2.037     c0,0.616-1.619,0.836-1.514,1.41c0.254,1.398,1.358,1.358,2.298,3.447c3.42,7.6,12.223,23.081,25.244,25.383     c31.192,5.516,55.147-20.82,60.708-20.6c5.561,0.219,14.783,11.402,19.524,9.255     C420.696,180.522,421.696,151.732,414.049,151.016z" />
			<path style="fill:#151747;" d="M364.342,120.516c-13.485-3.196-23.127,6.044-30.046,13.209     c7.867-6.535,16.799-13.075,26.144-10.86c22.5,5.333,36.749,22.214,48.368,21.813c-0.324,4.122-4.017,9.818-6.563,13.767     c5.295-5.081,8.605-11.859,9.096-18.096C402.342,147.349,386.842,125.849,364.342,120.516z" />
			<path style="fill:#151747;" d="M396.262,173.37c3.036,4.047,5.67,9.623,6.44,13.835c-13.667,2-13.843,13.813-32.948,16.72     c-14.084,2.143-19.056-6.639-35.091-9.421c16.181,3.852,21.516,14.178,36.845,11.846c19.105-2.907,19.667-15,33.333-17     C403.862,183.986,400.774,178.116,396.262,173.37z" />
			<path style="fill:#FF4400;" d="M399.513,168.522c-1.449-0.237-2.726-0.463-3.658-0.5c-5.561-0.219-12.409,3.863-25.514,8.327     c-8.923,3.04-21.585,2.648-33.393,1.324c-2.936-0.329,5.396-7.309,1.393-22.199c0.695,25.835-20.575,21.581-26.905,12.765     c-1.49-2.074-4.434-3.145-4.329-2.57c0.254,1.398,1.358,1.358,2.298,3.447c3.42,7.6,12.223,23.081,25.244,25.383     c31.192,5.516,55.147-20.82,60.708-20.6c1.234,0.049,2.65,0.639,4.156,1.502V168.522z" />
			<path style="fill:#FF7340;" d="M325.632,185.289c-2.989,2.84,3.139,13.003,3.139,13.003s14.199,15.096,25.796,17.182     C349.696,198.741,329.967,198.143,325.632,185.289z" />
			<path style="fill:#893D67;" d="M413.977,150.929c-5.048-0.472-11.577,8.723-16.968,9.469c0,0-1.422,0.122-1.422,5.576     c0,7.835,1.422,8.401,1.422,8.401c5.584,2.023,13.609,10.964,17.851,9.043C420.674,180.786,421.624,151.645,413.977,150.929z" />
			<path style="fill:#75325A;" d="M395.623,168.017c0.221,5.895,1.386,6.358,1.386,6.358c5.584,2.023,13.609,10.964,17.851,9.043     c3.398-1.538,5.134-12.131,4.465-20.812C418.426,174.599,408.842,176.266,395.623,168.017z" />
			<path style="fill:#151747;" d="M398.977,181.095c-0.507,0.375-0.021,1.986,1.164,4.269c-1.627-0.74-2.707-1.072-2.858-0.819     c-0.13,0.218,0.447,0.833,1.509,1.685c-0.964-0.286-1.57-0.351-1.683-0.139c-0.109,0.205,0.256,0.646,0.977,1.248     c-1.236-0.023-2.012,0.148-2.132,0.545c-0.066,0.22,0.073,0.493,0.386,0.805c-3.578,0.255-6.065,0.838-6.069,1.532     c-0.002,0.345,0.615,0.668,1.669,0.944c-3.077,0.467-5.13,1.132-5.096,1.767c0.021,0.392,0.841,0.708,2.19,0.926     c-3.753,0.03-6.411,0.479-6.456,1.191c-0.026,0.421,0.865,0.863,2.364,1.256c-3.201,0.366-5.357,0.849-5.334,1.266     c0.01,0.181,0.437,0.328,1.171,0.439c-1.115,0.205-1.778,0.492-1.8,0.844c-0.017,0.275,0.368,0.56,1.051,0.834     c-2.891-0.143-4.834-0.027-4.88,0.362c-0.03,0.255,0.768,0.587,2.119,0.936c-2.737,0.062-4.676,0.283-5.081,0.617     c-1.804-0.03-3.076,0.131-3.571,0.49c-2.262-0.508-3.84-0.592-3.999-0.127c-0.051,0.15,0.056,0.348,0.287,0.578     c-1.98-0.861-3.496-1.142-3.828-0.6c-0.15,0.245-0.037,0.632,0.282,1.108c-3.651-1.823-6.418-2.868-6.651-2.444     c-0.283,0.517,3.287,3.016,8.068,5.671c2.494,0.466,5.23,0.558,8.388,0.113c-0.589-0.488-1.265-0.994-2.017-1.497     c0.944,0.399,1.995,0.801,3.111,1.183c0.094,0.032,0.185,0.061,0.278,0.093c18.09-3.18,18.892-14.86,32.306-16.823     c-0.323-1.766-0.876-3.588-1.631-5.406C401.133,181.827,399.527,180.687,398.977,181.095z" />
			<path style="fill:#151747;" d="M411.329,140.358c-1.882,1.457-4.051,1.66-6.505,1.037c-0.451,0.089-0.897,0.18-1.332,0.272     c0.332-0.105,0.686-0.23,1.027-0.344c-6.088-1.698-13.922-8.335-23.561-13.877c-0.154,0.034-0.315,0.068-0.466,0.102     c0.127-0.051,0.25-0.103,0.375-0.154c-2.638-1.513-5.407-2.944-8.317-4.166c-0.626,0.299-1.228,0.596-1.784,0.886     c0.05-0.041,0.1-0.08,0.15-0.122c0.391-0.324,0.77-0.646,1.138-0.966c-2.474-1.014-5.042-1.88-7.712-2.512     c-1.434-0.34-2.819-0.524-4.167-0.6c-4.972,2.995-8.424,5.586-8.096,6.167c0.242,0.428,2.483-0.339,5.702-1.857     c-2.415,2.525-3.741,4.488-3.259,5.07c0.491,0.593,2.737-0.384,5.755-2.358c0.671-0.073,2.109-0.621,3.988-1.508     c-1.861,1.946-2.882,3.457-2.511,3.906c0.361,0.436,1.96-0.236,4.129-1.622c-0.028,0.106-0.036,0.205-0.003,0.29     c0.281,0.724,2.764,0.494,6.302-0.448c-1.868,1.064-2.956,1.976-2.772,2.451c0.191,0.493,1.708,0.411,3.937-0.115     c-0.042,0.054-0.068,0.105-0.059,0.151c0.059,0.301,1.266,0.348,3.169,0.181c-2.253,0.917-3.58,1.78-3.447,2.376     c0.195,0.873,3.471,0.931,8.033,0.281c-1.688,0.636-2.714,1.249-2.623,1.658c0.107,0.48,1.728,0.559,4.074,0.286     c-1.915,0.58-3.084,1.098-3.023,1.407c0.086,0.443,2.656,0.335,6.267-0.194c-1.092,0.732-1.68,1.339-1.541,1.697     c0.194,0.499,1.742,0.41,4.016-0.132c-0.666,0.381-1.025,0.72-0.962,0.972c0.138,0.555,2.262,0.533,5.192,0.032     c-1.405,0.561-2.252,1.172-2.165,1.676c0.14,0.817,2.666,1.086,5.906,0.701c-1.113,0.804-1.693,1.468-1.534,1.878     c0.185,0.477,1.336,0.535,3.104,0.253c-1.779,0.552-2.85,1.04-2.792,1.337c0.091,0.465,2.921,0.323,6.819-0.277     c-3.241,1.552-5.347,3.011-5.096,3.658c0.345,0.889,4.993-0.086,10.381-2.178c0.022-0.009,0.044-0.018,0.066-0.027     c-1.553,1.875-2.473,3.42-2.145,3.725c0.414,0.385,2.639-1.338,4.97-3.847c0.197-0.212,0.379-0.419,0.564-0.628     c0.426-1.518,0.706-3.035,0.824-4.522C411.337,140.357,411.333,140.358,411.329,140.358z" />
			<path style="fill:#151747;" d="M397.759,161.682c7.167-3.5,12.516-9.958,17.655-9.102c-4.948,0.666-7.35,3.451-10.822,5.852     C399.904,161.674,396.289,162.4,397.759,161.682z" />
			<path style="fill:#151747;" d="M397.568,163.13c7.707-2.051,14.203-7.355,19.08-5.523c-4.984-0.302-7.878,1.968-11.748,3.653     C399.674,163.536,395.987,163.551,397.568,163.13z" />
			<path style="fill:#151747;" d="M397.474,165.01c7.871-1.29,15.593-4.436,20.065-2.85c-4.06,0.063-7.438,0.75-11.895,1.808     C400.099,165.285,395.86,165.275,397.474,165.01z" />
			<path style="fill:#151747;" d="M397.759,171.609c7.167,3.5,12.516,9.958,17.655,9.102c-4.948-0.666-7.35-3.451-10.822-5.852     C399.904,171.618,396.289,170.892,397.759,171.609z" />
			<path style="fill:#151747;" d="M397.568,170.162c7.707,2.051,14.203,7.355,19.08,5.523c-4.984,0.302-7.878-1.968-11.748-3.653     C399.674,169.756,395.987,169.741,397.568,170.162z" />
			<path style="fill:#151747;" d="M397.474,168.282c7.871,1.29,15.593,4.436,20.065,2.85c-4.06-0.064-7.438-0.75-11.895-1.808     C400.099,168.008,395.86,168.017,397.474,168.282z" />
			<path style="fill:#151747;" d="M397.348,166.567c8.709,0.32,15.592-1.33,20.636,0.034c-4.726,0.095-8.439,0.536-13.196,0.444     C399.089,166.935,395.713,166.507,397.348,166.567z" />
			<path style="fill:#EA3700;" d="M331.743,193.434c2.798,4.355,6.689,8.874,13.309,14.485     c-6.411-0.393-17.602-12.961-17.602-12.961s-0.397-0.426-0.977-1.165c1.084,2.485,2.298,4.5,2.298,4.5     s14.199,15.096,25.796,17.183C350.983,203.164,339.364,199.583,331.743,193.434z" />
			<g>
				<circle style="fill:#FF4400;" cx="319.437" cy="156.878" r="4.078" />
				<circle style="fill:#FFFFFF;" cx="319.437" cy="156.878" r="3.58" />
				<path style="fill:#2D3739;" d="M320.509,156.649c0,1.171-0.95,2.121-2.121,2.121s-2.121-0.95-2.121-2.121      c0-1.171,0.949-2.121,2.121-2.121S320.509,155.477,320.509,156.649z" />
				<path style="fill:#1E2526;" d="M318.617,156.199c0,0.549-0.445,0.994-0.994,0.994c-0.549,0-0.994-0.445-0.994-0.994      c0-0.549,0.445-0.994,0.994-0.994C318.172,155.205,318.617,155.65,318.617,156.199z" />
				<path style="fill:#FFFFFF;" d="M320.089,155.907c0,0.351-0.285,0.636-0.636,0.636c-0.351,0-0.636-0.285-0.636-0.636      c0-0.351,0.285-0.636,0.636-0.636C319.804,155.271,320.089,155.556,320.089,155.907z" />
				<circle style="fill:#FFFFFF;" cx="319.267" cy="156.968" r="0.411" />
			</g>
			<path style="opacity:0.7;fill:#FFFFFF;" d="M326.392,153.628c0.196-4.924-7.08-2.625-3.893-7.371     c3.187-4.746,0.759,3.588,5.317,4.356C345.192,153.542,326.11,160.707,326.392,153.628z" />
			<path style="opacity:0.7;fill:#FFFFFF;" d="M378.835,162.982c1.701,0.311,3.619,0.692,3.254,2.415     c-0.581,2.743-5.26,0.244-6.84,1.662c-1.225,1.1-1.138,5.559-3.777,1.882c-0.912-1.269-0.814-6.202-0.157-7.617     c1.792-3.813,3.818,0.156,5.516,1.126C377.272,162.702,378.029,162.834,378.835,162.982z" />
			<path style="opacity:0.7;fill:#FFFFFF;" d="M361.726,159.023c0.583,3.421,8.882,3.003,6.553,7.318     c-1.278,2.368-4.673,2.132-6.032,0.258c-0.967-1.334-0.308-3.284-1.287-4.661c-1.691-2.379-6.258,0.875-6.613-2.37     C353.982,156.239,361.108,155.394,361.726,159.023z" />
			<path style="opacity:0.7;fill:#FFFFFF;" d="M342.23,189.235c-2.798-2.053-8.472,4.017-9.799-0.702     c-0.728-2.59,1.876-4.781,4.156-4.379c1.623,0.286,2.505,2.146,4.166,2.454c2.87,0.533,3.89-4.979,6.401-2.895     C349.732,185.852,345.197,191.413,342.23,189.235z" />
			<path style="opacity:0.7;fill:#FFFFFF;" d="M317.842,179.224c-0.625-6.25-7.425-5.039-2.701-10.464s0.385,4.599,5.955,6.273     C342.332,181.416,318.729,188.095,317.842,179.224z" />
			<path style="opacity:0.7;fill:#FFFFFF;" d="M346.239,160.103c-1.794,0.31-4.604,0.034-4.797-2.328     c-0.247-3.009,3.221-0.632,4.668-1.124c3.142-1.069-0.321-5.677,2.377-5.727C354.003,150.825,350.335,159.395,346.239,160.103z" />
			<path style="opacity:0.7;fill:#FFFFFF;" d="M358.07,177.694c-3.521,0.129-7.017-0.417-6.387-2.377     c1.093-3.396,5.46-1.627,7.822-1.375c1.352,0.144,8.363-0.547,5.009,2.484C363.845,177.031,360.949,177.588,358.07,177.694z" />
			<path style="opacity:0.7;fill:#FFFFFF;" d="M351.732,170.877c-0.265,0.62-0.543,1.2-1.113,1.424     c-3.441,1.355-5.828-6.85-0.224-7.397c2.175-0.212,4.252-0.415,6.212,0.627c1.756,0.934,3.638,2.795,0.957,3.999     c-1.377,0.618-3.043-1.098-4.462-0.504C352.347,169.343,352.048,170.138,351.732,170.877z" />
			<path style="opacity:0.7;fill:#FFFFFF;" d="M359.189,148.957c0.227-2.455,1.58-6.03,4.736-5.45     c4.02,0.74-0.311,4.434-0.178,6.499c0.289,4.485,7.535,1.584,6.648,5.128C368.579,162.38,358.671,154.561,359.189,148.957z" />
			<path style="opacity:0.7;fill:#FFFFFF;" d="M355.694,191.149c-2.779,0.051-3.234-0.813-3.676-3.053     c-0.262-1.325-0.297-6.158,0.944-6.84c1.409-0.774,3.265,0.871,4.24,1.523c1.695,1.133,1.168,1.975,4.004,1.969     c2.221-0.004,10.137-2.084,5.251,2.724c-1.935,1.905-6.278,2.822-8.861,3.427C356.95,191.05,356.306,191.138,355.694,191.149z" />
			<path style="opacity:0.7;fill:#FFFFFF;" d="M356.159,142.868c0.47,1.759,0.447,4.582-1.888,4.987     c-2.974,0.516-0.918-3.151-1.538-4.548c-1.347-3.033-5.625,0.831-5.917-1.851C346.223,135.972,355.086,138.853,356.159,142.868z" />
			<path style="opacity:0.7;fill:#FFFFFF;" d="M330.446,138.374c2.434-0.101,5.042,0.202,6.4,0.442     c3.071,0.542,2.436,2.747-0.421,2.7c-2.306-0.038-2.832-0.959-4.29,1.212c-0.691,1.029-0.879,2.857-2.381,3.078     c-1.536,0.226-5.394-4.861-4.271-6.008C326.423,138.839,328.372,138.46,330.446,138.374z" />
			<path style="opacity:0.7;fill:#FFFFFF;" d="M377.169,179.337c-1.647-0.334-2.995-1.018-4.837-0.173     c-1.339,0.614-2.235,3.169-4.184,2.59c-5.776-1.716,6.143-5.762,6.651-6.07c2.669-1.624,2.63-4.348,5.542-1.952     c3.021,2.49,2.293,5.676-1.604,5.761C378.174,179.504,377.658,179.436,377.169,179.337z" />
			<path style="opacity:0.7;fill:#FFFFFF;" d="M329.386,169.037c-2.422,0.268-5.044,0.145-6.415-0.001     c-3.101-0.33-2.619-2.573,0.234-2.723c2.303-0.121,2.891,0.762,4.196-1.505c0.618-1.074,0.681-2.91,2.164-3.234     c1.516-0.331,5.716,4.478,4.674,5.699C333.368,168.297,331.45,168.809,329.386,169.037z" />
			<path style="opacity:0.7;fill:#FFFFFF;" d="M341.134,143.993c2.368,0.571,4.793,1.578,6.033,2.181     c2.804,1.365,1.588,3.31-1.146,2.481c-2.207-0.669-2.459-1.7-4.458-0.012c-0.947,0.8-1.63,2.506-3.135,2.306     c-1.539-0.204-3.853-6.154-2.458-6.949C337.138,143.336,339.116,143.506,341.134,143.993z" />
			<path style="opacity:0.7;fill:#FFFFFF;" d="M379.36,151.564c1.358,1.089,10.206,7.954,6.942,9.356     c-5.477,2.35-5.406-6.439-7.996-6.809c-2.049-0.293-0.96,2.539-2.583,2.942c-2.602,0.647-1.877-2.468-2.487-3.696     c-0.502-1.012-2.671-2.435-2.684-3.563C370.513,146.203,378.127,150.576,379.36,151.564z" />
			<path style="opacity:0.7;fill:#FFFFFF;" d="M392.617,169.7c-0.21,0.775-0.464,1.407-0.733,1.756     c-1.345,1.747-5.482,4.861-7.116,1.88c-1.593-2.91,1.481-2.839,1.797-4.841c0.198-1.255-1.763-2.2-1.239-3.459     c0.404-0.972,5.968-3.017,6.799-2.616C394.118,163.382,393.047,168.114,392.617,169.7z" />
			<path style="opacity:0.7;fill:#FFFFFF;" d="M346.106,175.913c0.016,1.271-0.883,2.787-2.256,2.256     c-1.12-0.434-0.952-2.861-2.174-3.513c-1.093-0.584-2.616,1.659-3.419-0.32c-0.363-0.893,1.252-3.215,1.311-4.315     c0.09-1.695-1.963-4.629,1.059-5.283c4.329-0.936,3.036,2.862,2.806,4.9c-0.385,3.414,2.546,3.353,2.67,6.195     C346.105,175.86,346.106,175.887,346.106,175.913z" />
		</g>
		<g>
			<path style="fill:#FF4400;" d="M335.609,175.406l1.017,1.242c16.364,3.361,17.011-5.12,19.939-12.375     C352.154,164.648,341.125,170.134,335.609,175.406z" />
			<path style="fill:#CC2600;" d="M352.503,167.952c-3.044,10.944-15.876,8.695-15.876,8.695     c16.364,3.361,17.011-5.12,19.939-12.375c-3.422,0.291-10.828,3.658-16.552,7.615     C345.25,169.248,352.714,167.193,352.503,167.952z" />
		</g>
	</g>
	<g>
		<path style="fill:#CC2600;" d="M338.351,156.242c0.134,1.765,0.05,3.593-0.298,5.431c-1.645,8.69-8.387,14.372-15.306,13.136    c0.358,0.139,0.724,0.262,1.1,0.359c6.5,1.693,13.02-3.545,14.563-11.7C338.88,160.984,338.826,158.52,338.351,156.242z" />
	</g>
</g>
</svg>
