<?xml version="1.0" encoding="utf-8"?>
<svg xmlns="http://www.w3.org/2000/svg" xmlns:xlink="http://www.w3.org/1999/xlink" viewBox="-79 -54 272 169" xml:space="preserve">
<g xmlns="http://www.w3.org/2000/svg">
	<path style="fill:#272F42;" d="M116.182,93.317l22.015-21.472c2.902,0.223,4.264,8.477,5.13,15.407   C144.193,94.184,126.289,94.184,116.182,93.317z M76.859,94.606c0.407,0.49,16.798,17.771,23.151,17.193   c4.909-2.31,4.145-15.214,0.289-19.059c-1.523-1.519-11.849-2.463-18.569-1.616C81.443,95.83,76.452,94.116,76.859,94.606z" />
	<path style="fill:#F2DF2F;" d="M76.935,41.336c3.559-5.748,14.757-11.969,17.245-10.973c-1.493,2.986-1.882,4.688-1.882,4.688   s8.6-6.927,11.337-5.185c-1.991,3.484-3.255,5.321-3.255,5.321s9.476-6.566,12.462-4.575c-1.41,3.478-3.542,5.344-3.542,5.344   s10.26-4.846,12.748-3.602c-2.089,3.802-4.154,5.001-4.154,5.001s7.14-2.264,8.384-1.02c0.249,1.991,0.249,1.991,0.249,1.991   s3.981,0.746,4.728,1.742c-0.747,1.244-0.747,1.244-0.747,1.244s9.874,7.341,13.397,22.706   c-15.637,1.679-26.585-0.809-26.585-0.809L76.935,41.336z" />
	<path style="fill:#FFF240;" d="M39.415,77.212c4.143-0.255-8.31,0.397-5.891-2.618c1.644-2.049,29.243-35.001,55.419-35.564   c36.334-0.781,42.644,21.612,48.971,21.612s25.682-12.326,28.157-8.647c8.203,12.194-7.316,20.176-4.212,29.709   c2.214,6.799-19.461-8.448-23.17-8.448c-3.709,0,1.945,14.692-21.837,20.112c-15.738,3.587-27.511,5.695-49.984,1.113   S25.233,78.085,39.415,77.212z" />
	<path style="fill:#FFFF6C;" d="M166.071,51.994c-1.789-2.657-9.837,1.669-11.647,2.576c16.153,4.317,0.083,26.545-8.593,21.864   c7.497,4.045,17.571,10.012,16.027,5.27C158.755,72.17,174.274,64.189,166.071,51.994z" />
	<path style="fill:#F2DF2F;" d="M166.947,65.626c-0.628,0.676-7.702,12.01-23.976,5.2c-3.781-1.582-6.535-0.142-9.464,1.946   c-28.037,19.989-60.323,12.215-60.85,7.341c-1.061-9.817-4.301-14.386-5.32-15.479c5.32,11.234-0.429,27.95-22.422,22.755   c5.011,2.896,18.325,6.354,21.951,7.093c22.473,4.582,34.246,2.474,49.984-1.113c23.782-5.42,18.128-20.17,21.837-20.17   c3.709,0,25.384,15.276,23.17,8.477C160.069,76.178,164.471,71.196,166.947,65.626z" />
	<path style="fill:#CEBA25;" d="M66.511,63.703c0.943,1.432,1.679,3.033,2.136,4.784c2.159,8.279-2.535,16.715-10.549,19.355   c0.449-0.073,0.899-0.164,1.348-0.281c7.769-2.026,12.425-9.967,10.398-17.736C69.227,67.46,68.054,65.391,66.511,63.703z" />
	<path style="fill:#1E2533;" d="M83.161,44.708l16.674,9.03c0.607-2.92,1.434-5.795,2.645-8.621   c2.198-5.131,5.061-10.187,8.473-14.862c-3.912,0.317-10.574,4.931-10.574,4.931s1.265-1.838,3.255-5.321   c-2.737-1.742-11.337,5.185-11.337,5.185s0.389-1.702,1.882-4.688c-1.132-0.453-4.068,0.591-7.266,2.401   C85.401,36.595,83.919,40.62,83.161,44.708z" />
	<path style="fill:#1E2533;" d="M142.23,58.395c-1.998-5.404-4.695-9.494-6.999-12.314c-1.319,3.464-2.145,7.107-2.299,10.837   c-0.101,2.455-0.063,5.092,0.289,7.679c2.087-0.003,4.338-0.072,6.723-0.234C140.635,62.355,141.504,60.399,142.23,58.395z" />
	<path style="fill:#1E2533;" d="M125.863,44.74c1.019-1.961,2.111-3.877,3.123-5.806c-1.223-0.377-2.458-0.609-2.458-0.609   s0,0-0.249-1.991c-0.968-0.968-5.505,0.188-7.471,0.748c-2.458,3.452-4.039,7.698-5.214,11.544   c-1.068,3.495-2.113,7.226-2.893,10.996l6.621,3.586c0,0,1.019,0.231,2.87,0.504C121.262,57.246,122.906,50.431,125.863,44.74z" />
	<path style="fill:#272F42;" d="M78.416,73.172c-0.823-4.028-2-8.051-3.977-11.679c-1.639-3.007-3.651-5.736-5.028-8.89   c-0.984-2.254-1.583-4.602-1.952-6.994c-2.008,1.102-3.976,2.298-5.89,3.561c-0.163,2.125-0.298,4.254-0.041,6.35   c0.24,1.963,0.427,3.833,2.378,4.599c0.693,0.272,1.322,0.651,1.932,1.073c3.089,2.139,4.541,6.134,5.144,9.687   c0.775,4.569,0.72,9.225,0.376,13.834c-0.253,3.387-1.032,7.02-0.973,10.474c2.454,0.446,4.778,0.809,6.993,1.095   c0.976-2.103,1.478-4.425,1.723-6.722C79.681,84.141,79.508,78.514,78.416,73.172z" />
	<path style="fill:#272F42;" d="M102.48,45.117c0.684-1.597,1.435-3.186,2.243-4.759c-4.522-0.944-9.733-1.458-15.781-1.328   c-1.477,0.032-2.958,0.172-4.438,0.399c-1.52,4.843-2.426,9.86-1.469,14.823c1.626,8.432,6.25,15.834,7.521,24.385   c0.876,5.888,0.12,12.487,1.252,18.494c2.42-0.048,4.745-0.195,7.024-0.428c-0.221-1.213-0.42-2.431-0.569-3.663   c-1.096-9.056-0.942-18.185-0.061-27.254C98.895,58.662,99.638,51.753,102.48,45.117z" />
	<path style="fill:#272F42;" d="M162.075,72.013c1.554-4.393,3.551-11.15-0.63-14.827c-3.239-2.848-3.622,4.674-3.626,6.398   c-0.006,2.544,0.141,5.35-0.764,7.783c-0.867,2.329-2.512,4.321-3.287,6.672c-0.277,0.84-0.395,1.653-0.407,2.456   c1.925,0.996,3.729,1.861,5.185,2.393C159.271,79.154,160.784,75.664,162.075,72.013z" />
	<path style="fill:#272F42;" d="M148.217,57.257c-0.362,2.067-0.733,4.133-0.908,6.225c-0.22,2.645-0.933,12.028,3.91,11.565   c3.669-0.351,1.736-10.479,1.147-12.635c-0.62-2.267-1.036-4.438-0.699-6.689C150.512,56.24,149.354,56.759,148.217,57.257z" />
	<path style="fill:#272F42;" d="M138.762,69.908c0.172-3.582,1.633-6.783,2.914-10.048c-1.492,0.485-2.783,0.781-3.762,0.781   c-1.525,0-3.051-1.302-4.997-3.265c-0.18,5.307,0.314,11.39,3.274,15.928c0.346,0.53,0.711,1.046,1.087,1.554   c0.303-0.984,0.67-1.573,1.411-1.573c0.111,0,0.24,0.015,0.383,0.041C138.833,72.198,138.706,71.06,138.762,69.908z" />
	<path style="fill:#272F42;" d="M119.69,66.962c0.835-5.868,2.064-12.254,4.273-17.973c-2.41-1.845-5.257-3.658-8.687-5.221   c-0.651,1.632-1.201,3.28-1.683,4.859c-2.075,6.794-4.075,14.48-4.184,21.612c-0.124,8.096,2.461,16.586,7.353,23.237   c0.03-0.007,0.059-0.013,0.089-0.02c4.207-0.959,7.489-2.21,10.069-3.62C121.597,83.421,118.587,74.715,119.69,66.962z" />
	<path style="fill:#272F42;" d="M55.128,53.782c-2.575,1.991-4.997,4.033-7.225,6.026c0.193,5.105,0.831,10.144,2.796,14.954   c1.537,3.765,4.608,15.358,10.051,14.986c-0.435-4.894-3.471-9.044-5.494-13.404c-1.549-3.34-2.478-6.591-2.335-10.293   C53.075,62.106,53.661,57.722,55.128,53.782z" />
	<path style="fill:#1E2533;" d="M60.75,89.748c-0.084-0.942-0.265-1.856-0.516-2.75c-0.994,0.411-2.068,0.748-3.239,0.981   C58.099,89.139,59.345,89.844,60.75,89.748z" />
	<path style="fill:#1E2533;" d="M79.415,84.144c-4.118-1.138-6.614-2.677-6.757-4.002c-0.315-2.911-0.823-5.35-1.406-7.384   c0.482,3.963,0.403,7.976,0.107,11.955c-0.253,3.387-1.032,7.02-0.973,10.474c2.454,0.446,4.778,0.809,6.993,1.095   c0.976-2.103,1.478-4.425,1.723-6.722C79.293,87.771,79.393,85.96,79.415,84.144z" />
	<path style="fill:#1E2533;" d="M91.809,97.131c2.42-0.048,4.745-0.138,7.024-0.37c-0.221-1.213-0.42-2.489-0.569-3.721   c-0.298-2.463-0.496-4.932-0.62-7.403c-2.307,0.157-4.515,0.189-6.6,0.123C91.128,89.573,91.117,93.462,91.809,97.131z" />
	<path style="fill:#1E2533;" d="M121.205,79.812c-3.269,1.445-6.525,2.584-9.714,3.462c1.234,3.649,3.005,7.12,5.271,10.201   c0.03-0.007,0.059-0.013,0.089-0.02c4.207-0.959,7.489-2.153,10.069-3.562C124.464,86.933,122.498,83.43,121.205,79.812z" />
	<path style="fill:#1E2533;" d="M138.759,70.272c-1.226,0.194-2.371,0.698-3.506,1.375c0.282,0.57,0.591,1.126,0.937,1.657   c0.346,0.53,0.711,1.046,1.087,1.554c0.303-0.984,0.67-1.573,1.411-1.573c0.111,0,0.24,0.015,0.383,0.041   C138.858,72.317,138.742,71.299,138.759,70.272z" />
	<path style="fill:#1E2533;" d="M151.219,75.048c0.979-0.093,1.556-0.886,1.869-2.034c-1.594,0.028-3.339-0.144-5.239-0.578   C148.432,74.077,149.456,75.216,151.219,75.048z" />
	<path style="fill:#1E2533;" d="M162.075,72.013c0.24-0.68,0.491-1.416,0.728-2.189c-1.599,1.159-3.691,2.241-6.303,2.8   c-0.895,1.817-2.1,3.498-2.732,5.414c-0.277,0.84-0.395,1.653-0.407,2.456c1.925,0.996,3.729,1.861,5.185,2.393   C159.271,79.154,160.784,75.664,162.075,72.013z" />
	<path style="fill:#CEBA25;" d="M54.517,67.095c0,2.934-2.379,5.313-5.313,5.313s-5.313-2.379-5.313-5.313   c0-2.934,2.379-5.313,5.313-5.313S54.517,64.161,54.517,67.095z" />
	<path style="fill:#FFFFFF;" d="M53.869,67.095c0,2.576-2.089,4.665-4.665,4.665c-2.576,0-4.665-2.088-4.665-4.665   s2.088-4.665,4.665-4.665C51.78,62.43,53.869,64.519,53.869,67.095z" />
	<path style="fill:#2D3739;" d="M50.601,66.796c0,1.526-1.237,2.763-2.763,2.763s-2.763-1.237-2.763-2.763s1.237-2.763,2.763-2.763   S50.601,65.27,50.601,66.796z" />
	<path style="fill:#1E2526;" d="M48.136,66.21c0,0.715-0.58,1.295-1.295,1.295c-0.715,0-1.295-0.58-1.295-1.295   c0-0.715,0.58-1.295,1.295-1.295C47.556,64.915,48.136,65.495,48.136,66.21z" />
	<path style="fill:#FFFFFF;" d="M50.053,65.83c0,0.458-0.371,0.829-0.829,0.829c-0.458,0-0.829-0.371-0.829-0.829   c0-0.458,0.371-0.829,0.829-0.829C49.682,65.001,50.053,65.372,50.053,65.83z" />
	<path style="fill:#FFFFFF;" d="M49.518,67.212c0,0.296-0.24,0.535-0.535,0.535c-0.296,0-0.535-0.24-0.535-0.535   c0-0.296,0.24-0.535,0.535-0.535C49.278,66.676,49.518,66.916,49.518,67.212z" />
	<path style="fill:#FFFF6C;" d="M80.045,77.57c3.224-4.172,14.715-11.884,16.611-10.936c1.896,0.948,9.343,18.37,3.167,18.37   c-10.241-0.647-17.123-3.073-17.692-3.262C81.562,81.552,84.785,78.328,80.045,77.57z" />
</g>
</svg>
