<?xml version="1.0" encoding="utf-8"?>
<svg xmlns="http://www.w3.org/2000/svg" xmlns:xlink="http://www.w3.org/1999/xlink" viewBox="-88 -49 377 384" xml:space="preserve">
<g xmlns="http://www.w3.org/2000/svg">
	<g>
		<path style="fill:#BCDAE8;" d="M271.217,207.737c10.515-6.618,19.317-9.828,32.365-14.573c-12.2-0.847-47.785,22.029-69.475,31.01    c-21.69,8.981-25.587,17.962-30.84,22.029l31.518,12.37C213.265,230.613,249.561,221.367,271.217,207.737z" />
		<path style="fill:#F2DF2F;" d="M244.599,222.379c-3.811,1.845-7.632,3.677-11.205,5.927c-4.919,3.098-9.894,6.355-14.398,10.043    c-3.566,2.92-7.174,6.233-8.88,10.54l24.67,9.682C221.304,241.056,230.514,230.885,244.599,222.379z" />
		<path style="fill:#1E2533;" d="M226.197,253.3c-0.578-3.098-0.508-6.224-0.063-9.339c0.327-2.285,0.876-5.05,1.912-7.489    c-1.022,0.86-1.987,1.792-2.862,2.827c-3.449,4.08-5.554,8.415-6.537,12.939l8.156,3.201    C226.545,254.744,226.334,254.033,226.197,253.3z" />
		<path style="fill:#A9CAD8;" d="M209.521,308.178c6.401,0.389,31.704,13.768,34.246,11.904c2.542-1.864-6.679-12.461-0.374-25.887    C217.163,287.717,209.521,308.178,209.521,308.178z" />
		<path style="fill:#BCDAE8;" d="M201.743,304.662l-10.506-1.525c2.881,7.117,13.556,17.792,21.69,21.012    C208.182,317.371,201.743,304.662,201.743,304.662z" />
		<path style="fill:#BCDAE8;" d="M202.163,302.746l-9.495,0.177c3.575,5.865,14.547,13.741,22.193,15.403    C209.69,313.032,202.163,302.746,202.163,302.746z" />
		<path style="fill:#D2EAF7;" d="M242.75,271.111l0.339,12.709c10.336-1.356,18.131,9.828,20.673,9.828    c2.542,0-1.45-8.638-1.186-14.742c0.158-3.655,3.897-9.442,6.1-14.403C270.28,260.891,250.036,275.347,242.75,271.111z" />
		<path style="fill:#D2EAF7;" d="M161.075,274.839c22.876,0,17.962-24.062,46.26-30.162c23.025-4.963,39.821,23.723,39.143,34.737    c-0.678,11.014-1.017,29.484-38.804,29.484c-33.609,0-27.959-26.943-44.904-26.943    C154.466,281.956,155.144,274.839,161.075,274.839z" />
		<path style="fill:#BCDAE8;" d="M242.662,281.654c-3.196,1.338-3.547,5.058-5.261,7.69c-2.515,3.86-6.248,5.716-10.465,7.477    c-8.379,3.499-20.739,5.005-29.423,1.592c-2.959-1.163-5.521-3.726-5.686-7.055c-0.123-2.486,0.883-4.432,1.417-6.798    c0.498-2.208,0.129-4.472-0.773-6.526c0.054,2.973-0.62,5.989-2.786,7.99c-3.185,2.944-8.447,3.875-12.185,1.329    c-1.906-1.298-2.314-1.359-4.099-2.797c-2.273-1.831-4.175-3.709-7.277-5.054c-3.087-1.339-8.878-0.309-9.54-1.303    c-0.005,1.843,1.88,3.758,6.187,3.758c16.945,0,11.296,26.943,44.904,26.943c36.945,0,38.092-17.655,38.759-28.736    C244.98,280.061,243.865,281.15,242.662,281.654z" />
		<path style="fill:#1E2533;" d="M239.202,300.474c-0.042-2.353,0.291-4.675,0.696-6.988c-5.033-0.839-9.314-0.651-12.921,0.183    c0.332,2.21,0.52,4.466,0.491,6.798c-0.059,4.77,0.314,9.718,4.397,12.888c3.696,2.87,7.954,4.552,12.164,6.423    c0.526-0.888-0.156-2.75-0.989-5.348C240.823,310.073,239.291,305.457,239.202,300.474z" />
		<path style="fill:#1E2533;" d="M201.743,304.662l-10.506-1.525c2.881,7.117,13.556,17.792,21.69,21.012    C208.182,317.371,201.743,304.662,201.743,304.662z" />
		<path style="fill:#171F2B;" d="M202.163,302.746l-9.495,0.177c3.575,5.865,14.547,13.741,22.193,15.403    C209.69,313.032,202.163,302.746,202.163,302.746z" />
		<path style="fill:#272F42;" d="M168.796,280.643c0.796,0.599,1.617,1.058,2.472,1.143c1.721,0.17,2.414-1.725,2.732-3.082    c0.522-2.233,1.101-4.451,1.583-6.697c0.285-1.326,0.529-2.771,1.52-3.798c-3.739,3.876-8.294,6.63-16.027,6.63    c-1.281,0-2.307,0.337-3.059,0.858c-0.011,0.017-0.029,0.03-0.041,0.046c2.343,0.143,4.946,0.777,6.801,1.707    C166.071,278.1,167.395,279.589,168.796,280.643z" />
		<path style="fill:#272F42;" d="M199.354,270.317c0.269-8.772,2.393-16.902,5.097-24.923c-4.698,1.206-7.302,2.8-8.43,3.414    c-2.384,1.3-4.508,2.941-6.481,4.798c-3.87,3.642-6.829,7.252-8.484,12.37c-1.203,3.719-2.046,7.545-3.017,11.328    c-1.715,6.682-2.03,15.106,2.756,20.577c3.686,4.214,8.121,7.414,13.464,9.165c4.283,1.403,8.923,1.854,13.415,1.854    c0.361,0,0.712-0.005,1.066-0.008C201.45,297.427,198.937,283.89,199.354,270.317z" />
		<path style="fill:#FFF240;" d="M249.05,284.355c-1.723-4.064-2.684-8.316-1.495-12.543c-0.859,0.093-1.671,0.103-2.424,0.021    c-3.944-11.56-16.137-27.513-32.181-27.722c-0.261,0.377-0.532,0.745-0.777,1.135c-3.567,5.665-4.653,11.855-4.999,18.451    c-0.377,7.169-0.18,14.625,1.868,21.556c2.271,7.683,6.481,13.627,14.184,16.465c5.427,2,10.512,1.488,15.023-2.493    c2.123-1.874,3.912-4.061,5.826-6.131c1.292-3.116,1.814-6.337,2.094-9.32C247.157,283.874,248.119,284.076,249.05,284.355z" />
		<path style="fill:#BCDAE8;" d="M262.576,278.906c0.013-0.31,0.061-0.641,0.123-0.98c-3.312,2.199-7.237,3.353-11.781,2.808    c-2.367-0.284-5.474-0.33-7.902,0.352l0.073,2.733c10.336-1.356,18.131,9.828,20.673,9.828    C266.303,293.648,262.312,285.01,262.576,278.906z" />
		<path style="fill:#1E2533;" d="M197.512,298.299c-2.959-1.163-5.37-3.613-5.535-6.942c-0.123-2.486,0.808-4.432,1.341-6.798    c0.498-2.208,0.454-4.443-0.925-6.677c0.054,2.973-0.583,6.102-2.748,8.104c-3.185,2.944-8.447,3.837-12.185,1.291    c-0.203-0.138-0.35-0.22-0.545-0.367c0.156,4.03,1.238,8.026,3.88,11.046c3.686,4.214,8.159,7.49,13.502,9.241    c4.283,1.403,8.923,1.854,13.415,1.854c0.361,0,0.712-0.005,1.066-0.008c-1.795-2.823-3.336-6.038-4.579-9.082    C201.862,299.658,199.604,299.121,197.512,298.299z" />
		<path style="fill:#F2DF2F;" d="M242.344,280.893c-3.196,1.338-3.822,5.179-5.536,7.811c-2.515,3.861-6.118,6.082-10.335,7.843    c-2.333,0.974-5.302,2.158-7.992,2.748c1.414,0.957,2.983,1.775,4.743,2.423c5.427,2,10.512,1.488,15.023-2.493    c2.123-1.874,3.912-4.061,5.826-6.131c1.292-3.116,1.814-6.337,2.094-9.32c0.99,0.098,1.952,0.301,2.883,0.58    c-0.568-1.341-1.051-2.702-1.403-4.075C245.98,279.306,243.882,280.25,242.344,280.893z" />
		<path style="fill:#1E2533;" d="M167.648,282.696c-3.3-3.511-6.875-2.905-10.91-3.581c0.534,1.51,2.442,2.841,6.031,2.841    c1.985,0,3.657,0.374,5.122,1.027C167.808,282.889,167.734,282.787,167.648,282.696z" />
		<path style="fill:#272F42;" d="M241.189,282.671c-0.273-6.702-3.011-12.147-7.329-17.16c-3.046-3.536-6.772-7.443-7.662-12.211    c-0.343-1.837-0.454-3.797-0.398-5.645c-1.533-0.87-3.129-1.658-4.789-2.241c-4.02,7.998-3.809,16.909-0.712,26.031    c3.285,9.673,7.298,18.616,7.169,29.022c-0.025,1.995,0.031,4.02,0.397,5.935c5.06-1.543,8.701-3.705,11.338-6.203    C239.17,294.281,241.428,288.551,241.189,282.671z" />
		<path style="fill:#1E2533;" d="M241.102,281.368c-2.155,1.699-2.83,4.823-4.294,7.071c-2.27,3.484-5.837,5.208-9.593,6.992    c0.119,1.342,0.271,3.647,0.253,5.036c-0.025,1.995,0.031,4.096,0.397,6.01c5.06-1.543,8.701-3.704,11.338-6.203    c-0.034-5.918,2.225-11.723,1.985-17.604C241.171,282.231,241.141,281.797,241.102,281.368z" />
		<path style="fill:#272F42;" d="M259.408,278.331c0.512-5.519,3.878-9.959,7.577-14c-3.532,1.415-11.639,6.058-18.018,7.272    c-0.686,1.425-0.822,3.224-0.583,5.236c0.094,0.556,0.185,1.112,0.271,1.67c0.411,2.026,1.126,4.21,1.998,6.415    c5.87,2.392,10.292,7.563,12.476,8.547C260.78,288.703,258.902,283.779,259.408,278.331z" />
		<path style="fill:#1E2533;" d="M259.336,279.542c-2.521,0.995-5.326,1.411-8.418,1.041c-0.556-0.067-1.155-0.158-1.775-0.25    c0.402,1.442,0.915,3.085,1.51,4.59c5.87,2.392,10.292,7.563,12.476,8.547C260.978,289.104,259.227,284.454,259.336,279.542z" />
	</g>
	<g>
		<path style="fill:#272F42;" d="M183.289,268.513c0,1.384-1.122,2.506-2.506,2.506s-2.506-1.122-2.506-2.506    c0-1.384,1.122-2.506,2.506-2.506S183.289,267.129,183.289,268.513z" />
		<path style="fill:#FFFFFF;" d="M182.984,268.513c0,1.215-0.985,2.2-2.2,2.2c-1.215,0-2.2-0.985-2.2-2.2c0-1.215,0.985-2.2,2.2-2.2    C181.999,266.313,182.984,267.298,182.984,268.513z" />
		<path style="fill:#2D3739;" d="M181.442,268.372c0,0.72-0.583,1.303-1.303,1.303c-0.72,0-1.303-0.583-1.303-1.303    c0-0.72,0.584-1.303,1.303-1.303C180.859,267.069,181.442,267.652,181.442,268.372z" />
		<circle style="fill:#1E2526;" cx="179.669" cy="268.096" r="0.611" />
		<path style="fill:#FFFFFF;" d="M181.184,267.916c0,0.216-0.175,0.391-0.391,0.391c-0.216,0-0.391-0.175-0.391-0.391    c0-0.216,0.175-0.391,0.391-0.391C181.009,267.525,181.184,267.701,181.184,267.916z" />
		<path style="fill:#FFFFFF;" d="M180.931,268.568c0,0.139-0.113,0.253-0.252,0.253c-0.139,0-0.253-0.113-0.253-0.253    c0-0.139,0.113-0.253,0.253-0.253C180.818,268.315,180.931,268.429,180.931,268.568z" />
	</g>
</g>
</svg>
